<svg xmlns="http://www.w3.org/2000/svg" xmlns:xlink="http://www.w3.org/1999/xlink" width="48" height="38" viewBox="0 0 48 38">
  <defs>
    <linearGradient id="hover-c" x1="50%" x2="50%" y1="0%" y2="100%">
      <stop offset="0%" stop-color="#FFF"/>
      <stop offset="100%" stop-color="#FDFDFD"/>
    </linearGradient>
    <path id="hover-b" d="M-4.21741495e-15,3.99017859 C-4.21741495e-15,1.7864638 1.78913646,0 4.00172845,0 L41.9982716,0 C44.2083651,0 46,1.7852456 46,3.99017859 L46,32.0098214 C46,34.2135362 44.2108635,36 41.9982716,36 L4.00172845,36 C1.79163485,36 -4.21741495e-15,34.2147544 -4.21741495e-15,32.0098214 L-4.21741495e-15,3.99017859 Z"/>
    <filter id="hover-a" width="115.2%" height="122.2%" x="-7.6%" y="-6.9%" filterUnits="objectBoundingBox">
      <feMorphology in="SourceAlpha" operator="dilate" radius="1" result="shadowSpreadOuter1"/>
      <feOffset dy="2" in="shadowSpreadOuter1" result="shadowOffsetOuter1"/>
      <feGaussianBlur in="shadowOffsetOuter1" result="shadowBlurOuter1" stdDeviation=".5"/>
      <feComposite in="shadowBlurOuter1" in2="SourceAlpha" operator="out" result="shadowBlurOuter1"/>
      <feColorMatrix in="shadowBlurOuter1" values="0 0 0 0 0   0 0 0 0 0.45482337   0 0 0 0 1  0 0 0 0.07 0"/>
    </filter>
  </defs>
  <g fill="none" fill-rule="evenodd" transform="translate(1 1)">
    <use fill="#000" filter="url(#hover-a)" xlink:href="#hover-b"/>
    <path fill="url(#hover-c)" fill-opacity=".4" stroke="#FFF" stroke-opacity=".2" d="M-0.5,3.99017859 C-0.5,1.50918506 1.51413182,-0.5 4.00172845,-0.5 L41.9982716,-0.5 C44.484583,-0.5 46.5,1.50917624 46.5,3.99017859 L46.5,32.0098214 C46.5,34.4908149 44.4858682,36.5 41.9982716,36.5 L4.00172845,36.5 C1.51541696,36.5 -0.5,34.4908238 -0.5,32.0098214 L-0.5,3.99017859 Z"/>
    <polyline stroke="#FFF" stroke-linecap="round" stroke-linejoin="round" points="-3.05 3.51 3.45 9.49 9.95 3.51" transform="rotate(90 6.45 21.5)"/>
  </g>
</svg>
