<?xml version="1.0" encoding="UTF-8"?>
<svg width="64px" height="64px" viewBox="0 0 64 64" version="1.1" xmlns="http://www.w3.org/2000/svg" xmlns:xlink="http://www.w3.org/1999/xlink">
    <title>画板</title>
    <defs>
        <linearGradient x1="50%" y1="0%" x2="50%" y2="100%" id="linearGradient-1">
            <stop stop-color="#EBBD7E" offset="0%"></stop>
            <stop stop-color="#E4A54F" offset="12.908%"></stop>
            <stop stop-color="#EBBB7B" offset="13.678%"></stop>
            <stop stop-color="#DB9056" offset="100%"></stop>
        </linearGradient>
        <path d="M0.159177056,7.57552786 L1.5,4 C2.40226034,1.59397242 4.70236328,0 7.27200188,0 L44.7279982,0 C47.2976368,0 49.5977396,1.59397242 50.5,4 L51.840823,7.57552786 C51.9460826,7.8562205 52,8.15355658 52,8.45333646 L52,47 C52,49.7614238 49.7614238,52 47,52 L5,52 C2.23857626,52 0,49.7614238 0,47 L0,8.45333646 C0,8.15355658 0.0539173138,7.8562205 0.159177056,7.57552786 Z" id="path-2"></path>
        <linearGradient x1="50%" y1="0%" x2="50%" y2="100%" id="linearGradient-4">
            <stop stop-color="#0B0B0B" stop-opacity="0.2" offset="0%"></stop>
            <stop stop-color="#000000" stop-opacity="0.095" offset="100%"></stop>
        </linearGradient>
        <path d="M0.159177056,7.57552786 L1.5,4 C2.40226034,1.59397242 4.70236328,0 7.27200188,0 L44.7279982,0 C47.2976368,0 49.5977396,1.59397242 50.5,4 L51.840823,7.57552786 C51.9460826,7.8562205 52,8.15355658 52,8.45333646 L52,47 C52,49.7614238 49.7614238,52 47,52 L5,52 C2.23857626,52 0,49.7614238 0,47 L0,8.45333646 C0,8.15355658 0.0539173138,7.8562205 0.159177056,7.57552786 Z" id="path-5"></path>
        <linearGradient x1="50%" y1="0%" x2="50%" y2="100%" id="linearGradient-7">
            <stop stop-color="#ECD7C2" offset="0%"></stop>
            <stop stop-color="#E3B181" offset="36.974%"></stop>
            <stop stop-color="#F8DFBB" offset="40.466%"></stop>
            <stop stop-color="#EACAA7" offset="44.981%"></stop>
            <stop stop-color="#FCD2A0" offset="100%"></stop>
        </linearGradient>
        <linearGradient x1="16.653%" y1="14.661%" x2="100%" y2="67.838%" id="linearGradient-8">
            <stop stop-color="#00D9FC" offset="0%"></stop>
            <stop stop-color="#1170E7" offset="100%"></stop>
        </linearGradient>
        <linearGradient x1="33.841%" y1="4.875%" x2="62.94%" y2="83.806%" id="linearGradient-9">
            <stop stop-color="#FFFFFF" offset="0%"></stop>
            <stop stop-color="#CDE2E8" offset="100%"></stop>
        </linearGradient>
    </defs>
    <g id="画板" stroke="none" stroke-width="1" fill="none" fill-rule="evenodd">
        <rect id="矩形" x="0" y="0" width="64" height="64"></rect>
        <g id="deepin-installer-32px" transform="translate(3.000000, 4.000000)">
            <g id="deepin-installer-32px-b-link" fill="url(#linearGradient-1)" fill-rule="nonzero">
                <path d="M0.159177056,7.57552786 L1.5,4 C2.40226034,1.59397242 4.70236328,0 7.27200188,0 L44.7279982,0 C47.2976368,0 49.5977396,1.59397242 50.5,4 L51.840823,7.57552786 C51.9460826,7.8562205 52,8.15355658 52,8.45333646 L52,47 C52,49.7614238 49.7614238,52 47,52 L5,52 C2.23857626,52 0,49.7614238 0,47 L0,8.45333646 C0,8.15355658 0.0539173138,7.8562205 0.159177056,7.57552786 Z" id="deepin-installer-32px-b"></path>
            </g>
            <g id="Clipped">
                <mask id="mask-3" fill="white">
                    <use xlink:href="#path-2"></use>
                </mask>
                <g id="deepin-installer-32px-b"></g>
                <path d="M22.955,34.0863434 L23.035289,34.18243 C23.1057958,34.4146646 23.2227844,34.6318582 23.382693,34.8200284 L23.382693,34.8200284 L25.053,36.7863434 L18.9180533,43.611037 C18.9343811,43.735191 18.9442095,43.8290662 18.9475383,43.8926626 C19.0248796,45.3702202 17.8945104,46.6271496 16.4187483,46.7045852 C14.9429862,46.782021 13.6875845,45.650277 13.6102433,44.1727194 C13.5329021,42.695162 14.6659398,41.4380926 16.1390333,41.360797 L16.121079,41.361884 C16.4498955,41.1260714 16.7706899,40.9695312 17.0009065,40.7134212 L22.955,34.0863434 Z M24.919063,19.213824 L27.5949604,19.400941 L26.2106524,20.767833 C26.0959084,20.8089766 25.9083382,20.8660374 25.791896,20.8952126 C25.791896,20.8952126 24.1010438,21.269385 22.7600714,22.2442868 C21.419099,23.2191886 21.0552242,24.8965548 22.0827094,26.8707826 C22.6855414,28.0290744 23.078874,28.4290894 23.903174,29.3642732 C24.8671034,30.4578692 25.721755,31.3304432 26.0930172,31.7024618 C26.2531022,31.7384886 26.4048002,31.8184708 26.5282112,31.9419728 L37.4278834,42.8496822 C38.1700692,43.5924154 38.1905438,44.8277062 37.486992,45.5981334 C37.2711592,45.799646 36.7381688,46.2498692 36.7381688,46.2498692 C35.9231956,46.90796 34.7052116,46.7866108 34.026329,45.9877448 L24.0516402,34.2501648 C23.937014,34.1152802 23.8683542,33.9534278 23.8445014,33.7859434 C23.5451256,33.4097016 22.3861134,32.0028912 19.9943522,29.6458954 C17.1690615,26.861672 16.6879751,28.2649152 16.1672024,28.7265172 C15.6464297,29.1881194 15.6996758,29.6166968 15.6996758,29.6166968 C15.6545212,29.8803554 15.4720399,30.2332598 15.2674445,30.4043218 L14.4358804,31.0995918 C14.3584951,31.1373814 12.908804,29.5889912 12.4489734,29.0766346 C12.0539333,28.6364694 11.4234349,27.7555538 11.4234349,27.7555538 C11.3513613,27.656384 11.3612517,27.5056532 11.4429291,27.4159866 C11.4429291,27.4159866 12.2130402,26.5409486 12.4979959,26.524118 C13.3343223,26.4747212 13.7213995,26.3968498 14.1312301,25.771704 C14.5410606,25.1465582 14.5408763,24.653889 14.7687531,24.292116 C14.9202581,24.0515892 16.185526,22.4904224 18.0373364,21.3973844 C21.5895196,19.3006951 24.347027,19.1738234 24.919063,19.213824 Z M15.8756907,42.7085686 L14.8811605,43.776372 L15.3075141,45.1726122 L16.7283979,45.501049 L17.7229281,44.4332456 L17.2965745,43.0370054 L15.8756907,42.7085686 Z M36.7192496,21.4899916 L34.6220308,21.8999812 C33.4301012,22.1319512 32.6516916,23.2859912 32.8831178,24.4780266 C32.8831814,24.4783546 32.8832452,24.4786828 32.8833092,24.479011 L32.9417042,24.7115666 C33.2691252,25.7694494 34.3481754,26.4325238 35.4599866,26.216146 L35.4599866,26.216146 L37.9565442,25.7307632 C37.504505,27.5576252 35.9037072,28.9537522 33.9291616,29.05736 C33.8340516,29.0623506 33.7394908,29.064268 33.6455756,29.063199 C33.447743,29.0845278 33.2486216,29.0927422 33.049623,29.0877566 C32.3815364,29.0719728 31.7380842,29.349192 31.2913912,29.846654 L28.633,32.8023434 L27.149127,31.3200006 C27.0370076,31.2077986 26.9116908,31.1123884 26.776738,31.0351482 L26.567527,30.933087 C26.4373966,30.8014614 26.302895,30.6638054 26.16478,30.5206914 L28.792657,27.5954072 C29.2400632,27.0979078 29.4489202,26.4289014 29.3626948,25.7653536 C29.3303768,25.5162572 29.3187836,25.2647794 29.3280792,25.013744 C29.3252398,24.9769712 29.3228478,24.9400626 29.320909,24.9030226 C29.19417,22.4817518 31.0518706,20.4160562 33.4701994,20.2891624 C34.721227,20.223519 35.8772144,20.6895782 36.7192496,21.4899916 Z" id="形状" fill="url(#linearGradient-4)" fill-rule="nonzero" mask="url(#mask-3)"></path>
            </g>
            <g id="Clipped">
                <mask id="mask-6" fill="white">
                    <use xlink:href="#path-5"></use>
                </mask>
                <g id="deepin-installer-32px-b"></g>
                <g id="编组" mask="url(#mask-6)">
                    <g transform="translate(18.000000, 0.000000)" id="deepin-installer-32px-g-link">
                        <g>
                            <path d="M2,0 L0,7 L0,16.6535322 C0,16.7225678 0.0559644,16.7785322 0.125,16.7785322 C0.16219544,16.7785322 0.19745876,16.7619675 0.22120664,16.7333399 L2.4006152,14.1061078 C2.6650748,13.787307 3.137901,13.7432549 3.4567016,14.0077146 C3.5121502,14.0537117 3.5606822,14.1074581 3.6008016,14.1672972 L5.3006842,16.7027153 C5.3775728,16.8173966 5.5328708,16.8480336 5.647552,16.771145 C5.671936,16.7547967 5.69325,16.7342814 5.710517,16.7105391 L7.5187648,14.2241983 C7.7623936,13.8892089 8.2314562,13.8151463 8.5664456,14.058775 C8.6425428,14.1141184 8.7075464,14.1832871 8.758063,14.2626705 L10.3074426,16.6974097 C10.3815696,16.813895 10.5360914,16.8482332 10.6525768,16.7741062 C10.6774826,16.7582569 10.6993846,16.7381217 10.7172676,16.7146335 L12.6858458,14.1290383 C12.9367642,13.7994738 13.4073388,13.7357185 13.7369034,13.986637 C13.7934636,14.0296999 13.8436142,14.0805853 13.8858498,14.1377659 L15.7744542,16.6946457 C15.8154706,16.7501756 15.8937368,16.7619411 15.9492668,16.7209247 C15.9811732,16.6973575 16,16.6600455 16,16.620379 L16,7 L16,7 L14,0 L2,0 Z" id="deepin-installer-32px-g" fill="#000000" fill-rule="nonzero"></path>
                        </g>
                        <g>
                            <path d="M2,0 L0,7 L0,16.6535322 C0,16.7225678 0.0559644,16.7785322 0.125,16.7785322 C0.16219544,16.7785322 0.19745876,16.7619675 0.22120664,16.7333399 L2.4006152,14.1061078 C2.6650748,13.787307 3.137901,13.7432549 3.4567016,14.0077146 C3.5121502,14.0537117 3.5606822,14.1074581 3.6008016,14.1672972 L5.3006842,16.7027153 C5.3775728,16.8173966 5.5328708,16.8480336 5.647552,16.771145 C5.671936,16.7547967 5.69325,16.7342814 5.710517,16.7105391 L7.5187648,14.2241983 C7.7623936,13.8892089 8.2314562,13.8151463 8.5664456,14.058775 C8.6425428,14.1141184 8.7075464,14.1832871 8.758063,14.2626705 L10.3074426,16.6974097 C10.3815696,16.813895 10.5360914,16.8482332 10.6525768,16.7741062 C10.6774826,16.7582569 10.6993846,16.7381217 10.7172676,16.7146335 L12.6858458,14.1290383 C12.9367642,13.7994738 13.4073388,13.7357185 13.7369034,13.986637 C13.7934636,14.0296999 13.8436142,14.0805853 13.8858498,14.1377659 L15.7744542,16.6946457 C15.8154706,16.7501756 15.8937368,16.7619411 15.9492668,16.7209247 C15.9811732,16.6973575 16,16.6600455 16,16.620379 L16,7 L16,7 L14,0 L2,0 Z" id="deepin-installer-32px-g" fill="url(#linearGradient-7)" fill-rule="nonzero"></path>
                        </g>
                    </g>
                </g>
            </g>
            <g id="编组" transform="translate(26.000000, 22.000000)" fill-rule="nonzero">
                <circle id="椭圆形" fill="url(#linearGradient-8)" cx="16" cy="16" r="16"></circle>
                <g id="deepin-installer-32px-l-link" transform="translate(7.260545, 8.000000)" fill="url(#linearGradient-9)">
                    <path d="M5.98945535,0 L11.4894553,0 C12.1798113,0 12.7394553,0.55964406 12.7394553,1.25 L12.7394553,8 L12.7394553,8 L16.4789035,8 C17.0311883,8 17.4789035,8.44771526 17.4789035,9 C17.4789035,9.24876604 17.3861819,9.48860082 17.2188437,9.6726728 L9.66438045,17.9825824 C9.19999679,18.4934044 8.40943639,18.5310502 7.89861435,18.0666664 C7.86926829,18.0399882 7.84120851,18.0119284 7.81453025,17.9825824 L0.260066987,9.6726728 C-0.111439953,9.26401518 -0.0813233527,8.63156686 0.327334267,8.26005992 C0.511406227,8.09272178 0.751241007,8 1,8 L4.73945535,8 L4.73945535,8 L4.73945535,1.25 C4.73945535,0.55964406 5.29909941,0 5.98945535,0 Z" id="deepin-installer-32px-l"></path>
                </g>
            </g>
        </g>
    </g>
</svg>