<?xml version="1.0" encoding="UTF-8"?>
<svg width="214px" height="46px" viewBox="0 0 214 46" version="1.1" xmlns="http://www.w3.org/2000/svg" xmlns:xlink="http://www.w3.org/1999/xlink">
    <title>distribution_logo</title>
    <g id="distribution_logo" stroke="none" stroke-width="1" fill="none" fill-rule="evenodd">
        <path d="M62.9964029,2 C64.1009724,2 64.9964029,2.8954305 64.9964029,4 L64.9964029,21.0029976 C64.9962213,22.0573594 65.8120909,22.9211627 66.8469503,22.9975118 L66.9964029,23.0028073 L84.001199,23.0011895 C85.0555608,23.0009075 85.9194417,23.8166949 85.9958893,24.8515471 L86.001199,25.0009992 L86.001199,42 C86.001199,43.1045695 85.1057685,44 84.001199,44 L4,44 C2.8954305,44 2,43.1045695 2,42 L2,4 C2,2.8954305 2.8954305,2 4,2 L62.9964029,2 Z M210,2 C211.054362,2 211.918165,2.81587779 211.994514,3.85073766 L212,4 L212,42 C212,43.0543618 211.184122,43.9181651 210.149262,43.9945143 L210,44 L129.9996,44 C128.945239,44 128.081435,43.1841222 128.005086,42.1492623 L127.9996,42 L127.9996,25.0009992 L128.00491,24.8515471 C128.077535,23.8684375 128.860819,23.0830339 129.842949,23.0071931 L129.9996,23.0011895 L147.006395,23.0028073 L147.155847,22.9975118 C148.138964,22.9249802 148.924442,22.1417711 149.000376,21.159648 L149.006395,21.0029976 L149.006395,4 C149.006395,2.9456382 149.822273,2.08183488 150.857132,2.00548574 L151.006395,2 L210,2 Z M127.980216,4.00099919 C129.743252,4.00099919 130.727253,5.06919046 130.852656,6.16596506 L130.863854,6.30313556 L129.333108,6.30313556 C129.309128,6.07931674 129.041347,5.35590236 127.986211,5.35590236 C127.100936,5.35590236 126.427488,6.05133939 126.427488,7.24037684 C126.427488,8.28353238 127.104933,8.97896941 128.004197,8.97896941 C128.910748,8.97896941 129.252613,8.49039606 129.366334,7.8381319 L129.385066,7.71399343 L130.915812,7.71399343 C130.813895,9.2047866 129.81871,10.3038968 127.958234,10.3038968 C126.451468,10.3038968 124.838789,9.21477851 124.838789,7.21439787 C124.838789,5.21201884 126.099756,4.00099919 127.980216,4.00099919 Z M97.679434,4 C99.6238414,4 100.948756,5.40885949 100.948756,7.14945044 C100.948756,8.8900414 99.4859544,10.3008993 97.679434,10.3008993 C95.874912,10.3008993 94.4101117,8.8900414 94.4101117,7.14945044 C94.4101117,5.40885949 95.6451002,4 97.679434,4 Z M93.1203681,4.00099919 L93.1203681,10.2999001 L91.2618903,10.2999001 L91.2618903,4.00099919 L93.1203681,4.00099919 Z M123.706916,4.00019984 L123.706916,5.33711757 L119.814105,5.33711757 L119.814105,6.4262359 L123.387178,6.4262359 L123.387178,7.68921349 L119.814105,7.68921349 L119.814105,8.96418138 L123.788849,8.96418138 L123.788849,10.2991007 L117.961622,10.2991007 L117.961622,4.00019984 L123.706916,4.00019984 Z M116.414489,4.00019984 L116.414489,5.33711757 L114.210294,5.33711757 L114.210294,10.2991007 L112.357812,10.2991007 L112.357812,5.3451111 L110.145624,5.3451111 L110.145624,4.00019984 L116.414489,4.00019984 Z M77.2811412,4.00019984 L77.2811412,7.36947233 C77.2811412,8.38465052 77.7967189,8.77833183 78.6480216,8.77833183 C79.6631901,8.77833183 80.0029119,8.308712 80.0029119,7.31951278 L80.0029119,4.00019984 L81.7874503,4.00019984 L81.7874503,7.64924585 C81.7874503,8.77433506 81.389776,10.2991007 78.6340331,10.2991007 C76.625678,10.2991007 75.4906077,9.46377694 75.4906077,7.77514393 L75.4906077,4.00019984 L77.2811412,4.00019984 Z M85.1085302,4.00019984 L87.9761814,7.87306466 L87.9761814,4.00019984 L89.684782,4.00019984 L89.684782,10.2991007 L87.9282207,10.2991007 L85.074558,6.43622782 L85.074558,10.2991007 L83.3599623,10.2991007 L83.3599623,4.00019984 L85.1085302,4.00019984 Z M103.994462,4.00019984 L106.916069,7.87306466 L106.916069,4.00019984 L108.66064,4.00019984 L108.66064,10.2991007 L106.868108,10.2991007 L103.958491,6.43622782 L103.958491,10.2991007 L102.209923,10.2991007 L102.209923,4.00019984 L103.994462,4.00019984 Z M133.901167,4.00019984 L133.901167,6.32232003 L136.65691,6.32232003 L136.65691,4.00019984 L138.509392,4.00019984 L138.509392,10.2991007 L136.648916,10.2991007 L136.648916,7.68721511 L133.901167,7.68721511 L133.901167,10.2991007 L132.050682,10.2991007 L132.050682,4.00019984 L133.901167,4.00019984 Z M97.679434,5.55074464 C96.8461165,5.55074464 96.1686714,6.21220916 96.1686714,7.14945044 C96.1686714,8.08869011 96.8461165,8.75814817 97.679434,8.75814817 C98.5147498,8.75814817 99.1901966,8.08869011 99.1901966,7.14945044 C99.1901966,6.21220916 98.5147498,5.55074464 97.679434,5.55074464 Z" id="形状结合" fill="#2450FF"></path>
    </g>
</svg>