<?xml version="1.0" encoding="UTF-8"?>
<svg width="48px" height="48px" viewBox="0 0 48 48" version="1.1" xmlns="http://www.w3.org/2000/svg" xmlns:xlink="http://www.w3.org/1999/xlink">
    <title>drive-harddisk-deepin-48px</title>
    <defs>
        <filter x="-19.1%" y="-16.2%" width="138.2%" height="132.5%" filterUnits="objectBoundingBox" id="filter-1">
            <feOffset dx="0" dy="1" in="SourceAlpha" result="shadowOffsetOuter1"></feOffset>
            <feGaussianBlur stdDeviation="1" in="shadowOffsetOuter1" result="shadowBlurOuter1"></feGaussianBlur>
            <feColorMatrix values="0 0 0 0 0   0 0 0 0 0   0 0 0 0 0  0 0 0 0.2 0" type="matrix" in="shadowBlurOuter1" result="shadowMatrixOuter1"></feColorMatrix>
            <feMerge>
                <feMergeNode in="shadowMatrixOuter1"></feMergeNode>
                <feMergeNode in="SourceGraphic"></feMergeNode>
            </feMerge>
        </filter>
        <linearGradient x1="102.549264%" y1="57.6822305%" x2="-2.65228894%" y2="57.6822305%" id="linearGradient-2">
            <stop stop-color="#0067BC" offset="0%"></stop>
            <stop stop-color="#30EA7F" offset="4.57146722%"></stop>
            <stop stop-color="#00D887" offset="9.93130604%"></stop>
            <stop stop-color="#00B160" offset="88.9446523%"></stop>
            <stop stop-color="#00C165" offset="93.7925209%"></stop>
            <stop stop-color="#008CBD" offset="100%"></stop>
        </linearGradient>
        <linearGradient x1="100%" y1="56.4295561%" x2="0%" y2="56.4295561%" id="linearGradient-3">
            <stop stop-color="#FFFFFF" stop-opacity="0.5" offset="0%"></stop>
            <stop stop-color="#FFFFFF" offset="8.38902143%"></stop>
            <stop stop-color="#FFFFFF" stop-opacity="0.8" offset="52.3560063%"></stop>
            <stop stop-color="#FFFFFF" offset="88.1683526%"></stop>
            <stop stop-color="#FFFFFF" stop-opacity="0.5" offset="100%"></stop>
        </linearGradient>
        <radialGradient cx="48.2392027%" cy="19.1031265%" fx="48.2392027%" fy="19.1031265%" r="78.6539217%" gradientTransform="translate(0.482392,0.191031),scale(0.205882,1.000000),rotate(90.000000),scale(1.000000,3.580713),translate(-0.482392,-0.191031)" id="radialGradient-4">
            <stop stop-color="#7CFFFE" offset="0%"></stop>
            <stop stop-color="#D6CDE6" offset="100%"></stop>
        </radialGradient>
        <linearGradient x1="50%" y1="0%" x2="50%" y2="100%" id="linearGradient-5">
            <stop stop-color="#0174FF" offset="0%"></stop>
            <stop stop-color="#01C2FF" offset="50.8499801%"></stop>
            <stop stop-color="#0056FF" offset="100%"></stop>
        </linearGradient>
    </defs>
    <g id="drive-harddisk-deepin-48px" stroke="none" stroke-width="1" fill="none" fill-rule="evenodd">
        <g id="drive-harddisk-48px">
            <g id="Group-2" filter="url(#filter-1)" transform="translate(7.000000, 4.000000)">
                <path d="M0,6.00641141 C0,2.68916199 2.68211672,0 6.00025246,0 L27.9997475,0 C31.3135955,0 34,2.69075263 34,6.00641141 L34,34.9976004 C34,36.1034952 33.1080589,37 32.0000796,37 L1.9999204,37 C0.895394863,37 0,36.1037214 0,34.9976004 L0,6.00641141 Z" id="Rectangle-1" fill="url(#linearGradient-2)"></path>
                <path d="M29.9997876,28.5 L4.00021236,28.5 C3.03400028,28.5 2.15886397,28.8918802 1.52531553,29.525386 C0.897285721,30.1533736 0.506636154,31.0188292 0.500083744,31.9754836 L0.958175043,36.4930768 L33.5,35.9978848 L33.5,31.9999433 C33.5,31.036324 33.1071364,30.1606971 32.4726511,29.5262545 C31.8394545,28.8931004 30.9653461,28.5 29.9997876,28.5 Z" id="Rectangle-3" stroke-opacity="0.5" stroke="#FFFFFF" fill="url(#linearGradient-3)"></path>
                <path d="M30.5053387,33.5 L3.49466128,33.5 C2.67004141,33.5 1.92100037,33.8366255 1.37829684,34.3801581 C0.8363452,34.9229376 0.5,35.6722806 0.5,36.5 C0.5,37.3272677 0.83574966,38.0776522 1.37835202,38.6210835 C1.92010912,39.1636682 2.66823476,39.5 3.49466128,39.5 L30.5053387,39.5 C31.3358945,39.5 32.089771,39.1577851 32.6314864,38.5846833 C33.1672198,38.0179101 33.493886,37.2277611 33.4948396,36.3227126 C33.4489879,35.5363695 33.0995078,34.8304025 32.5622705,34.3210561 C32.0258722,33.8125051 31.3019743,33.5 30.5053387,33.5 Z" id="Rectangle-1" stroke-opacity="0.2" stroke="#003D9C" fill="url(#radialGradient-4)"></path>
                <g id="Group" transform="translate(19.500000, 35.000000)" fill="url(#linearGradient-5)">
                    <path d="M11,0 C11.2761424,0 11.5,0.215752602 11.5,0.495388985 L11.5,2.50461102 C11.5,2.74780727 11.3167438,2.95007308 11.0877486,2.99201862 L11,3 C10.7238576,3 10.5,2.7842474 10.5,2.50461102 L10.5,0.495388985 C10.5,0.252192734 10.6832562,0.0499269165 10.9122514,0.00798137978 L11,0 Z M9,0 C9.27614237,0 9.5,0.215752602 9.5,0.495388985 L9.5,2.50461102 C9.5,2.74780727 9.31674383,2.95007308 9.08774863,2.99201862 L9,3 C8.72385763,3 8.5,2.7842474 8.5,2.50461102 L8.5,0.495388985 C8.5,0.252192734 8.68325617,0.0499269165 8.91225137,0.00798137978 L9,0 Z M7,0 C7.27614237,0 7.5,0.215752602 7.5,0.495388985 L7.5,2.50461102 C7.5,2.74780727 7.31674383,2.95007308 7.08774863,2.99201862 L7,3 C6.72385763,3 6.5,2.7842474 6.5,2.50461102 L6.5,0.495388985 C6.5,0.252192734 6.68325617,0.0499269165 6.91225137,0.00798137978 L7,0 Z M5,0 C5.27614237,0 5.5,0.215752602 5.5,0.495388985 L5.5,2.50461102 C5.5,2.74780727 5.31674383,2.95007308 5.08774863,2.99201862 L5,3 C4.72385763,3 4.5,2.7842474 4.5,2.50461102 L4.5,0.495388985 C4.5,0.252192734 4.68325617,0.0499269165 4.91225137,0.00798137978 L5,0 Z M3,0 C3.27614237,0 3.5,0.215752602 3.5,0.495388985 L3.5,2.50461102 C3.5,2.74780727 3.31674383,2.95007308 3.08774863,2.99201862 L3,3 C2.72385763,3 2.5,2.7842474 2.5,2.50461102 L2.5,0.495388985 C2.5,0.252192734 2.68325617,0.0499269165 2.91225137,0.00798137978 L3,0 Z M1,0 C1.27614237,0 1.5,0.215752602 1.5,0.495388985 L1.5,2.50461102 C1.5,2.74780727 1.31674383,2.95007308 1.08774863,2.99201862 L1,3 C0.723857625,3 0.5,2.7842474 0.5,2.50461102 L0.5,0.495388985 C0.5,0.252192734 0.683256173,0.0499269165 0.912251372,0.00798137978 L1,0 Z" id="Combined-Shape"></path>
                </g>
                <path d="M4,35.5 C3.72385763,35.5 3.47385763,35.6119288 3.29289322,35.7928932 C3.11192881,35.9738576 3,36.2238576 3,36.5 C3,36.7761424 3.11192881,37.0261424 3.29289322,37.2071068 C3.47385763,37.3880712 3.72385763,37.5 4,37.5 C4.27614237,37.5 4.52614237,37.3880712 4.70710678,37.2071068 C4.88807119,37.0261424 5,36.7761424 5,36.5 C5,36.2238576 4.88807119,35.9738576 4.70710678,35.7928932 C4.52614237,35.6119288 4.27614237,35.5 4,35.5 Z" id="Oval" stroke="#54D800" fill="#A5F532"></path>
            </g>
        </g>
        <path d="M24,26 C23.5433846,26 23.0964615,25.9558462 22.6646154,25.8718462 C24.4803077,25.3635385 26.6373846,24.1078462 27.6626154,22.0918462 C27.6626154,22.0918462 29.7647692,18.6467692 26.2076923,15.5463077 C26.2076923,15.5463077 27.122,16.9850769 27.15,18.4324615 C27.15,18.4324615 27.3675385,20.3353846 25.6843077,21.5243077 C23.202,23.2764615 19.3347692,22.4870769 17.6892308,22.0326154 C17.2476923,21.1150769 17,20.0866154 17,19 C17,17.3738462 17.5546154,15.878 18.4850769,14.6890769 C18.9438462,16.9043077 19.8915385,18.7544615 20.5290769,19.4415385 C21.3787692,20.3558462 22.6301538,21.3272308 24.2369231,20.9266154 C25.8426154,20.5249231 26.17,18.7684615 26.17,18.7684615 C26.5253846,17.2747692 26.0192308,15.5 25.9923077,15.4623077 C25.9653846,15.4246154 25.7241538,15.3836923 25.7241538,15.3836923 C25.9761538,17.7367692 25.3569231,18.7781538 25.3569231,18.7781538 C24.4566154,20.6229231 23.1341538,20.0521538 23.1341538,20.0521538 C21.6641538,19.3026154 21.7330769,17.1907692 21.7330769,17.1907692 C21.69,15.7746154 22.2295385,13.4678462 23.2698462,12.0376923 C23.51,12.0129231 23.7533846,12 24,12 C24.9369231,12 25.8307692,12.1841538 26.6481538,12.5190769 C25.7801538,13.2481538 24.4426154,14.6126154 24.4426154,14.6126154 C22.2758462,16.6210769 22.6958462,18.3107692 22.6958462,18.3107692 C23.0404615,20.0855385 24.1152308,18.8901538 24.1152308,18.8901538 C25.2449231,17.7227692 25.1609231,15.3976923 25.1609231,15.3976923 C24.7032308,15.472 24.4135385,15.724 24.4135385,15.724 C24.3575385,17.2747692 23.4421538,18.2364615 23.4421538,18.2364615 C23.0878462,18.6284615 22.8358462,18.2547692 22.8358462,18.2547692 C22.6495385,17.9747692 23.0221538,17.7787692 23.0221538,17.7787692 C23.5455385,17.3210769 23.7016923,16.5403077 23.6952308,16.2473846 C23.6876923,15.9533846 23.8438462,15.8736923 23.8438462,15.8736923 C24.5826154,15.304 25.3203077,14.968 25.3203077,14.968 C26.31,14.4629231 28.0750769,14.3789231 28.0750769,14.3789231 C28.4929231,14.3929231 28.8935385,14.3767692 29.2327692,14.3509231 C30.3323077,15.5872308 31,17.2155385 31,19 C31,22.8661538 27.8661538,26 24,26 M16,19 C16,23.4182857 19.5817143,27 24,27 C28.4182857,27 32,23.4182857 32,19 C32,14.5817143 28.4182857,11 24,11 C19.5817143,11 16,14.5817143 16,19 Z" id="Page-1" fill="#FFFFFF"></path>
    </g>
</svg>