<?xml version="1.0" encoding="UTF-8"?>
<svg width="32px" height="32px" viewBox="0 0 32 32" version="1.1" xmlns="http://www.w3.org/2000/svg" xmlns:xlink="http://www.w3.org/1999/xlink">
    <title>drive-harddisk-deepin-32px</title>
    <defs>
        <filter x="-16.7%" y="-14.8%" width="133.3%" height="129.6%" filterUnits="objectBoundingBox" id="filter-1">
            <feOffset dx="0" dy="1" in="SourceAlpha" result="shadowOffsetOuter1"></feOffset>
            <feGaussianBlur stdDeviation="0.5" in="shadowOffsetOuter1" result="shadowBlurOuter1"></feGaussianBlur>
            <feColorMatrix values="0 0 0 0 0   0 0 0 0 0   0 0 0 0 0  0 0 0 0.15 0" type="matrix" in="shadowBlurOuter1" result="shadowMatrixOuter1"></feColorMatrix>
            <feMerge>
                <feMergeNode in="shadowMatrixOuter1"></feMergeNode>
                <feMergeNode in="SourceGraphic"></feMergeNode>
            </feMerge>
        </filter>
        <linearGradient x1="102.549264%" y1="57.6822305%" x2="-2.65228894%" y2="57.6822305%" id="linearGradient-2">
            <stop stop-color="#0067BC" offset="0%"></stop>
            <stop stop-color="#30EA7F" offset="4.57146722%"></stop>
            <stop stop-color="#00D887" offset="9.93130604%"></stop>
            <stop stop-color="#00B160" offset="88.9446523%"></stop>
            <stop stop-color="#00C165" offset="93.7925209%"></stop>
            <stop stop-color="#008CBD" offset="100%"></stop>
        </linearGradient>
        <linearGradient x1="100%" y1="56.4295561%" x2="0%" y2="56.4295561%" id="linearGradient-3">
            <stop stop-color="#FFFFFF" stop-opacity="0.5" offset="0%"></stop>
            <stop stop-color="#FFFFFF" offset="8.38902143%"></stop>
            <stop stop-color="#FFFFFF" stop-opacity="0.8" offset="52.3560063%"></stop>
            <stop stop-color="#FFFFFF" offset="88.1683526%"></stop>
            <stop stop-color="#FFFFFF" stop-opacity="0.5" offset="100%"></stop>
        </linearGradient>
        <radialGradient cx="48.2392027%" cy="19.1031265%" fx="48.2392027%" fy="19.1031265%" r="78.6539217%" gradientTransform="translate(0.482392,0.191031),scale(0.208333,1.000000),rotate(90.000000),scale(1.000000,3.580713),translate(-0.482392,-0.191031)" id="radialGradient-4">
            <stop stop-color="#7CFFFE" offset="0%"></stop>
            <stop stop-color="#D6CDE6" offset="100%"></stop>
        </radialGradient>
        <linearGradient x1="50%" y1="0%" x2="50%" y2="100%" id="linearGradient-5">
            <stop stop-color="#0174FF" offset="0%"></stop>
            <stop stop-color="#01C2FF" offset="50.8499801%"></stop>
            <stop stop-color="#0056FF" offset="100%"></stop>
        </linearGradient>
        <radialGradient cx="50%" cy="37.643375%" fx="50%" fy="37.643375%" r="62.356625%" id="radialGradient-6">
            <stop stop-color="#B0FF58" offset="0%"></stop>
            <stop stop-color="#37EC00" offset="100%"></stop>
        </radialGradient>
    </defs>
    <g id="drive-harddisk-deepin-32px" stroke="none" stroke-width="1" fill="none" fill-rule="evenodd">
        <g id="drive-harddisk-32px">
            <g id="Group" filter="url(#filter-1)" transform="translate(4.000000, 2.000000)">
                <path d="M-3.48450158e-10,3.99976556 C-3.48450158e-10,1.79075604 1.78429324,4.06657819e-10 3.99005293,4.06657819e-10 L20.0099466,4.06657819e-10 C22.213592,4.06657819e-10 23.9999995,1.7856077 23.9999996,3.99976556 L24,23.5 L-3.48450158e-10,23.5 L-3.48450158e-10,3.99976556 Z" id="Rectangle-1" fill="url(#linearGradient-2)"></path>
                <path d="M21.7421383,19.5 L2.25786173,19.5 C1.76942829,19.5 1.33031709,19.6949121 1.0131816,20.0114174 C0.695048167,20.3289187 0.500000002,20.7682526 0.500000002,21.2533752 L0.500000002,23.7466249 C0.500000002,24.232382 0.695838073,24.6702835 1.01305522,24.9868703 C1.33142754,25.30461 1.77170754,25.5000001 2.25786173,25.5000001 L21.7421383,25.5 C22.2305717,25.5 22.6696829,25.3050878 22.9868184,24.9885825 C23.3049518,24.6710813 23.5,24.2317473 23.5,23.7466248 L23.5,21.2533752 C23.5,20.7676181 23.3041619,20.3297166 22.9869448,20.0131298 C22.6685725,19.6953901 22.2282925,19.5 21.7421383,19.5 Z" id="Rectangle-3" stroke-opacity="0.5" stroke="#FFFFFF" fill="url(#linearGradient-3)"></path>
                <path d="M21.4994976,22.5 L2.50050156,22.5 C1.94979018,22.5 1.44932086,22.7246702 1.08665134,23.087267 C0.724824749,23.449021 0.499999999,23.9483527 0.499999999,24.5 C0.499999999,25.0550966 0.722593017,25.554559 1.08354161,25.9154352 C1.44583867,26.2776596 1.94704653,26.5 2.50050156,26.5 L21.4994976,26.5 C22.0537956,26.5 22.5571898,26.2715157 22.9182529,25.8858158 C23.2767825,25.502822 23.4931854,24.967811 23.4946912,24.3518782 C23.4573492,23.8326101 23.2241366,23.3709327 22.8687939,23.0384646 C22.5108204,22.703535 22.0290738,22.5 21.4994976,22.5 Z" id="Rectangle-1" stroke-opacity="0.2" stroke="#003D9C" fill="url(#radialGradient-4)"></path>
                <path d="M15,24 L15,25 L14,25 L14,24 L15,24 Z M17,24 L17,25 L16,25 L16,24 L17,24 Z M19,24 L19,25 L18,25 L18,24 L19,24 Z M21,24 L21,25 L20,25 L20,24 L21,24 Z" id="Combined-Shape" fill="url(#linearGradient-5)"></path>
                <path d="M3,25.5 C3.55228475,25.5 4,25.0522847 4,24.5 C4,23.9477153 3.55228475,23.5 3,23.5 C2.44771525,23.5 2,23.9477153 2,24.5 C2,25.0522847 2.44771525,25.5 3,25.5 Z" id="Oval" fill="url(#radialGradient-6)"></path>
            </g>
        </g>
        <path d="M16,17 C15.6738462,17 15.3546154,16.9684615 15.0461538,16.9084615 C16.3430769,16.5453846 17.8838462,15.6484615 18.6161538,14.2084615 C18.6161538,14.2084615 20.1176923,11.7476923 17.5769231,9.53307692 C17.5769231,9.53307692 18.23,10.5607692 18.25,11.5946154 C18.25,11.5946154 18.4053846,12.9538462 17.2030769,13.8030769 C15.43,15.0546154 12.6676923,14.4907692 11.4923077,14.1661538 C11.1769231,13.5107692 11,12.7761538 11,12 C11,10.8384615 11.3961538,9.77 12.0607692,8.92076923 C12.3884615,10.5030769 13.0653846,11.8246154 13.5207692,12.3153846 C14.1276923,12.9684615 15.0215385,13.6623077 16.1692308,13.3761538 C17.3161538,13.0892308 17.55,11.8346154 17.55,11.8346154 C17.8038462,10.7676923 17.4423077,9.5 17.4230769,9.47307692 C17.4038462,9.44615385 17.2315385,9.41692308 17.2315385,9.41692308 C17.4115385,11.0976923 16.9692308,11.8415385 16.9692308,11.8415385 C16.3261538,13.1592308 15.3815385,12.7515385 15.3815385,12.7515385 C14.3315385,12.2161538 14.3807692,10.7076923 14.3807692,10.7076923 C14.35,9.69615385 14.7353846,8.04846154 15.4784615,7.02692308 C15.65,7.00923077 15.8238462,7 16,7 C16.6692308,7 17.3076923,7.13153846 17.8915385,7.37076923 C17.2715385,7.89153846 16.3161538,8.86615385 16.3161538,8.86615385 C14.7684615,10.3007692 15.0684615,11.5076923 15.0684615,11.5076923 C15.3146154,12.7753846 16.0823077,11.9215385 16.0823077,11.9215385 C16.8892308,11.0876923 16.8292308,9.42692308 16.8292308,9.42692308 C16.5023077,9.48 16.2953846,9.66 16.2953846,9.66 C16.2553846,10.7676923 15.6015385,11.4546154 15.6015385,11.4546154 C15.3484615,11.7346154 15.1684615,11.4676923 15.1684615,11.4676923 C15.0353846,11.2676923 15.3015385,11.1276923 15.3015385,11.1276923 C15.6753846,10.8007692 15.7869231,10.2430769 15.7823077,10.0338462 C15.7769231,9.82384615 15.8884615,9.76692308 15.8884615,9.76692308 C16.4161538,9.36 16.9430769,9.12 16.9430769,9.12 C17.65,8.75923077 18.9107692,8.69923077 18.9107692,8.69923077 C19.2092308,8.70923077 19.4953846,8.69769231 19.7376923,8.67923077 C20.5230769,9.56230769 21,10.7253846 21,12 C21,14.7615385 18.7615385,17 16,17 M10,12 C10,15.3137143 12.6862857,18 16,18 C19.3137143,18 22,15.3137143 22,12 C22,8.68628571 19.3137143,6 16,6 C12.6862857,6 10,8.68628571 10,12 Z" id="Page-1" fill="#FFFFFF"></path>
    </g>
</svg>