<svg xmlns="http://www.w3.org/2000/svg" xmlns:xlink="http://www.w3.org/1999/xlink" width="52" height="60" viewBox="0 0 52 60">
  <defs>
    <filter id="drive-harddisk-64x-a" width="134.8%" height="129.6%" x="-17.4%" y="-14.8%" filterUnits="objectBoundingBox">
      <feOffset dy="1" in="SourceAlpha" result="shadowOffsetOuter1"/>
      <feGaussianBlur in="shadowOffsetOuter1" result="shadowBlurOuter1" stdDeviation="1.5"/>
      <feColorMatrix in="shadowBlurOuter1" result="shadowMatrixOuter1" values="0 0 0 0 0   0 0 0 0 0   0 0 0 0 0  0 0 0 0.2 0"/>
      <feMerge>
        <feMergeNode in="shadowMatrixOuter1"/>
        <feMergeNode in="SourceGraphic"/>
      </feMerge>
    </filter>
    <linearGradient id="drive-harddisk-64x-b" x1="102.549%" x2="-2.652%" y1="57.682%" y2="57.682%">
      <stop offset="0%" stop-color="#0067BC"/>
      <stop offset="4.571%" stop-color="#30EA7F"/>
      <stop offset="9.931%" stop-color="#00D887"/>
      <stop offset="88.945%" stop-color="#00B160"/>
      <stop offset="93.793%" stop-color="#00C165"/>
      <stop offset="100%" stop-color="#008CBD"/>
    </linearGradient>
    <linearGradient id="drive-harddisk-64x-c" x1="100%" x2="0%" y1="56.43%" y2="56.43%">
      <stop offset="0%" stop-color="#FFF" stop-opacity=".5"/>
      <stop offset="9.936%" stop-color="#FFF" stop-opacity=".9"/>
      <stop offset="52.356%" stop-color="#FFF" stop-opacity=".7"/>
      <stop offset="87.648%" stop-color="#FFF" stop-opacity=".9"/>
      <stop offset="100%" stop-color="#FFF" stop-opacity=".5"/>
    </linearGradient>
    <path id="drive-harddisk-64x-d" d="M1.8905378e-09,42.5067504 C1.5811549e-09,40.0177409 2.0061411,38 4.49442825,38 L41.5055718,38 C43.9877759,38 46,40.0058586 46,42.5067503 L46,47.4932496 C46,49.982259 43.9938589,51.9999999 41.5055718,51.9999999 L4.49442825,52.0000001 C2.01222407,52.0000001 2.82121756e-09,49.9941415 2.51035771e-09,47.4932498 L1.8905378e-09,42.5067504 Z"/>
    <filter id="drive-harddisk-64x-e" width="102.2%" height="107.1%" x="-1.1%" y="-3.6%" filterUnits="objectBoundingBox">
      <feMorphology in="SourceAlpha" radius="1" result="shadowSpreadInner1"/>
      <feOffset in="shadowSpreadInner1" result="shadowOffsetInner1"/>
      <feComposite in="shadowOffsetInner1" in2="SourceAlpha" k2="-1" k3="1" operator="arithmetic" result="shadowInnerInner1"/>
      <feColorMatrix in="shadowInnerInner1" values="0 0 0 0 1   0 0 0 0 1   0 0 0 0 1  0 0 0 0.5 0"/>
    </filter>
    <radialGradient id="drive-harddisk-64x-f" cx="48.239%" cy="19.103%" r="78.654%" fx="48.239%" fy="19.103%" gradientTransform="matrix(0 1 -.77841 0 .631 -.291)">
      <stop offset="0%" stop-color="#7CFFFE"/>
      <stop offset="100%" stop-color="#D6CDE6"/>
    </radialGradient>
    <path id="drive-harddisk-64x-g" d="M-1.06570042e-09,49 C-1.06570042e-09,46.2385763 2.23422109,44 4.99939301,44 L41.0006054,44 C43.7616939,44 45.9999984,46.2441952 45.9999984,49 L45.9999984,49 C45.9999984,51.7614237 43.7657773,54 41.0006054,54 L4.99939301,54 C2.23830449,54 -1.06570042e-09,51.7558048 -1.06570042e-09,49 L-1.06570042e-09,49 Z"/>
    <filter id="drive-harddisk-64x-h" width="102.2%" height="110%" x="-1.1%" y="-5%" filterUnits="objectBoundingBox">
      <feMorphology in="SourceAlpha" radius="1" result="shadowSpreadInner1"/>
      <feOffset in="shadowSpreadInner1" result="shadowOffsetInner1"/>
      <feComposite in="shadowOffsetInner1" in2="SourceAlpha" k2="-1" k3="1" operator="arithmetic" result="shadowInnerInner1"/>
      <feColorMatrix in="shadowInnerInner1" values="0 0 0 0 0   0 0 0 0 0.239215686   0 0 0 0 0.611764706  0 0 0 0.2 0"/>
    </filter>
    <linearGradient id="drive-harddisk-64x-i" x1="50%" x2="50%" y1="0%" y2="100%">
      <stop offset="0%" stop-color="#0174FF"/>
      <stop offset="50.85%" stop-color="#01C2FF"/>
      <stop offset="100%" stop-color="#0056FF"/>
    </linearGradient>
    <radialGradient id="drive-harddisk-64x-j" cx="50%" cy="37.643%" r="62.357%" fx="50%" fy="37.643%">
      <stop offset="0%" stop-color="#B0FF58"/>
      <stop offset="100%" stop-color="#37EC00"/>
    </radialGradient>
  </defs>
  <g fill="none" fill-rule="evenodd" filter="url(#drive-harddisk-64x-a)" transform="translate(3 2)">
    <path fill="url(#drive-harddisk-64x-b)" d="M-3.48450158e-10,7.99953111 C-3.48450158e-10,3.58151207 3.59038265,4.06657819e-10 7.99944794,4.06657819e-10 L38.0005511,4.06657819e-10 C42.4185242,4.06657819e-10 45.9999991,3.59057045 45.9999992,7.99953111 L46,47 L-3.48450158e-10,47 L-3.48450158e-10,7.99953111 Z"/>
    <use fill="url(#drive-harddisk-64x-c)" xlink:href="#drive-harddisk-64x-d"/>
    <use fill="#000" filter="url(#drive-harddisk-64x-e)" xlink:href="#drive-harddisk-64x-d"/>
    <use fill="url(#drive-harddisk-64x-f)" xlink:href="#drive-harddisk-64x-g"/>
    <use fill="#000" filter="url(#drive-harddisk-64x-h)" xlink:href="#drive-harddisk-64x-g"/>
    <path fill="url(#drive-harddisk-64x-i)" d="M30.5,47 C30.7761424,47 31,47.2150574 31,47.4904785 L31,50.5095215 C31,50.7503071 30.8167438,50.950568 30.5877486,50.9920977 L30.5,51 C30.2238576,51 30,50.7849426 30,50.5095215 L30,47.4904785 C30,47.2496929 30.1832562,47.049432 30.4122514,47.0079023 L30.5,47 Z M32.5,47 C32.7761424,47 33,47.2150574 33,47.4904785 L33,50.5095215 C33,50.7503071 32.8167438,50.950568 32.5877486,50.9920977 L32.5,51 C32.2238576,51 32,50.7849426 32,50.5095215 L32,47.4904785 C32,47.2496929 32.1832562,47.049432 32.4122514,47.0079023 L32.5,47 Z M34.5,47 C34.7761424,47 35,47.2150574 35,47.4904785 L35,50.5095215 C35,50.7503071 34.8167438,50.950568 34.5877486,50.9920977 L34.5,51 C34.2238576,51 34,50.7849426 34,50.5095215 L34,47.4904785 C34,47.2496929 34.1832562,47.049432 34.4122514,47.0079023 L34.5,47 Z M36.5,47 C36.7761424,47 37,47.2150574 37,47.4904785 L37,50.5095215 C37,50.7503071 36.8167438,50.950568 36.5877486,50.9920977 L36.5,51 C36.2238576,51 36,50.7849426 36,50.5095215 L36,47.4904785 C36,47.2496929 36.1832562,47.049432 36.4122514,47.0079023 L36.5,47 Z M38.5,47 C38.7761424,47 39,47.2150574 39,47.4904785 L39,50.5095215 C39,50.7503071 38.8167438,50.950568 38.5877486,50.9920977 L38.5,51 C38.2238576,51 38,50.7849426 38,50.5095215 L38,47.4904785 C38,47.2496929 38.1832562,47.049432 38.4122514,47.0079023 L38.5,47 Z M40.5,47 C40.7761424,47 41,47.2150574 41,47.4904785 L41,50.5095215 C41,50.7503071 40.8167438,50.950568 40.5877486,50.9920977 L40.5,51 C40.2238576,51 40,50.7849426 40,50.5095215 L40,47.4904785 C40,47.2496929 40.1832562,47.049432 40.4122514,47.0079023 L40.5,47 Z"/>
    <path fill="url(#drive-harddisk-64x-j)" stroke="#54D800" d="M6,47.5 C5.58578644,47.5 5.21078644,47.6678932 4.93933983,47.9393398 C4.66789322,48.2107864 4.5,48.5857864 4.5,49 C4.5,49.4142136 4.66789322,49.7892136 4.93933983,50.0606602 C5.21078644,50.3321068 5.58578644,50.5 6,50.5 C6.41421356,50.5 6.78921356,50.3321068 7.06066017,50.0606602 C7.33210678,49.7892136 7.5,49.4142136 7.5,49 C7.5,48.5857864 7.33210678,48.2107864 7.06066017,47.9393398 C6.78921356,47.6678932 6.41421356,47.5 6,47.5 Z"/>
  </g>
</svg>
