<?xml version="1.0" encoding="UTF-8"?>
<svg width="64px" height="64px" viewBox="0 0 64 64" version="1.1" xmlns="http://www.w3.org/2000/svg" xmlns:xlink="http://www.w3.org/1999/xlink">
    <title>drive-harddisk-deepin-64px</title>
    <defs>
        <filter x="-17.4%" y="-14.8%" width="134.8%" height="129.6%" filterUnits="objectBoundingBox" id="filter-1">
            <feOffset dx="0" dy="1" in="SourceAlpha" result="shadowOffsetOuter1"></feOffset>
            <feGaussianBlur stdDeviation="1.5" in="shadowOffsetOuter1" result="shadowBlurOuter1"></feGaussianBlur>
            <feColorMatrix values="0 0 0 0 0   0 0 0 0 0   0 0 0 0 0  0 0 0 0.2 0" type="matrix" in="shadowBlurOuter1" result="shadowMatrixOuter1"></feColorMatrix>
            <feMerge>
                <feMergeNode in="shadowMatrixOuter1"></feMergeNode>
                <feMergeNode in="SourceGraphic"></feMergeNode>
            </feMerge>
        </filter>
        <linearGradient x1="102.549264%" y1="57.6822305%" x2="-2.65228894%" y2="57.6822305%" id="linearGradient-2">
            <stop stop-color="#0067BC" offset="0%"></stop>
            <stop stop-color="#30EA7F" offset="4.57146722%"></stop>
            <stop stop-color="#00D887" offset="9.93130604%"></stop>
            <stop stop-color="#00B160" offset="88.9446523%"></stop>
            <stop stop-color="#00C165" offset="93.7925209%"></stop>
            <stop stop-color="#008CBD" offset="100%"></stop>
        </linearGradient>
        <linearGradient x1="100%" y1="56.4295561%" x2="0%" y2="56.4295561%" id="linearGradient-3">
            <stop stop-color="#FFFFFF" stop-opacity="0.5" offset="0%"></stop>
            <stop stop-color="#FFFFFF" offset="8.38902143%"></stop>
            <stop stop-color="#FFFFFF" stop-opacity="0.8" offset="52.3560063%"></stop>
            <stop stop-color="#FFFFFF" offset="88.1683526%"></stop>
            <stop stop-color="#FFFFFF" stop-opacity="0.5" offset="100%"></stop>
        </linearGradient>
        <radialGradient cx="48.2392027%" cy="19.1031265%" fx="48.2392027%" fy="19.1031265%" r="78.6539217%" gradientTransform="translate(0.482392,0.191031),scale(0.217391,1.000000),rotate(90.000000),scale(1.000000,3.580713),translate(-0.482392,-0.191031)" id="radialGradient-4">
            <stop stop-color="#7CFFFE" offset="0%"></stop>
            <stop stop-color="#D6CDE6" offset="100%"></stop>
        </radialGradient>
        <linearGradient x1="50%" y1="0%" x2="50%" y2="100%" id="linearGradient-5">
            <stop stop-color="#0174FF" offset="0%"></stop>
            <stop stop-color="#01C2FF" offset="50.8499801%"></stop>
            <stop stop-color="#0056FF" offset="100%"></stop>
        </linearGradient>
        <radialGradient cx="50%" cy="37.643375%" fx="50%" fy="37.643375%" r="62.356625%" id="radialGradient-6">
            <stop stop-color="#B0FF58" offset="0%"></stop>
            <stop stop-color="#37EC00" offset="100%"></stop>
        </radialGradient>
    </defs>
    <g id="drive-harddisk-deepin-64px" stroke="none" stroke-width="1" fill="none" fill-rule="evenodd">
        <g id="drive-harddisk-64px">
            <g id="Group" filter="url(#filter-1)" transform="translate(9.000000, 5.000000)">
                <path d="M-3.48450158e-10,7.99953111 C-3.48450158e-10,3.58151207 3.59038265,4.06657819e-10 7.99944794,4.06657819e-10 L38.0005511,4.06657819e-10 C42.4185242,4.06657819e-10 45.9999991,3.59057045 45.9999992,7.99953111 L46,47 L-3.48450158e-10,47 L-3.48450158e-10,7.99953111 Z" id="Rectangle-1" fill="url(#linearGradient-2)"></path>
                <path d="M41.5055718,38.5 L4.49442825,38.5 C3.38954926,38.5 2.39160401,38.947621 1.6696355,39.6715689 C0.94626823,40.3969194 0.500000002,41.399461 0.500000002,42.5067504 L0.500000003,47.4932498 C0.500000003,48.6037576 0.945774388,49.604756 1.66752083,50.3284812 C2.39053205,51.0534746 3.39019891,51.5000001 4.49442825,51.5000001 L41.5055718,51.4999999 C42.6104507,51.4999999 43.608396,51.0523789 44.3303645,50.328431 C45.0537318,49.6030805 45.5,48.6005389 45.5,47.4932496 L45.5,42.5067503 C45.5,41.3962425 45.0542256,40.3952441 44.3324792,39.6715189 C43.609468,38.9465255 42.6098011,38.5 41.5055718,38.5 Z" id="Rectangle-3" stroke-opacity="0.5" stroke="#FFFFFF" fill="url(#linearGradient-3)"></path>
                <path d="M41.0006054,44.5 L4.99939301,44.5 C3.7555622,44.5 2.63104195,45.0031888 1.81733421,45.8169953 C1.00299091,46.6314375 0.499999999,47.7568802 0.499999999,49 C0.499999999,50.2407687 1.00428651,51.36622 1.81924551,52.1812779 C2.63333613,52.9954674 3.75757773,53.5 4.99939301,53.5 L41.0006054,53.5 C42.2527367,53.5 43.383958,52.9895184 44.1973382,52.140036 C45.0026059,51.2990262 45.4948661,50.1279321 45.4953862,48.7948337 C45.4416696,47.600482 44.9204644,46.5256744 44.1104748,45.7499416 C43.3025644,44.9762 42.2070648,44.5 41.0006054,44.5 Z" id="Rectangle-1" stroke-opacity="0.2" stroke="#003D9C" fill="url(#radialGradient-4)"></path>
                <path d="M30.5,47 C30.7761424,47 31,47.2150574 31,47.4904785 L31,50.5095215 C31,50.7503071 30.8167438,50.950568 30.5877486,50.9920977 L30.5,51 C30.2238576,51 30,50.7849426 30,50.5095215 L30,47.4904785 C30,47.2496929 30.1832562,47.049432 30.4122514,47.0079023 L30.5,47 Z M32.5,47 C32.7761424,47 33,47.2150574 33,47.4904785 L33,50.5095215 C33,50.7503071 32.8167438,50.950568 32.5877486,50.9920977 L32.5,51 C32.2238576,51 32,50.7849426 32,50.5095215 L32,47.4904785 C32,47.2496929 32.1832562,47.049432 32.4122514,47.0079023 L32.5,47 Z M34.5,47 C34.7761424,47 35,47.2150574 35,47.4904785 L35,50.5095215 C35,50.7503071 34.8167438,50.950568 34.5877486,50.9920977 L34.5,51 C34.2238576,51 34,50.7849426 34,50.5095215 L34,47.4904785 C34,47.2496929 34.1832562,47.049432 34.4122514,47.0079023 L34.5,47 Z M36.5,47 C36.7761424,47 37,47.2150574 37,47.4904785 L37,50.5095215 C37,50.7503071 36.8167438,50.950568 36.5877486,50.9920977 L36.5,51 C36.2238576,51 36,50.7849426 36,50.5095215 L36,47.4904785 C36,47.2496929 36.1832562,47.049432 36.4122514,47.0079023 L36.5,47 Z M38.5,47 C38.7761424,47 39,47.2150574 39,47.4904785 L39,50.5095215 C39,50.7503071 38.8167438,50.950568 38.5877486,50.9920977 L38.5,51 C38.2238576,51 38,50.7849426 38,50.5095215 L38,47.4904785 C38,47.2496929 38.1832562,47.049432 38.4122514,47.0079023 L38.5,47 Z M40.5,47 C40.7761424,47 41,47.2150574 41,47.4904785 L41,50.5095215 C41,50.7503071 40.8167438,50.950568 40.5877486,50.9920977 L40.5,51 C40.2238576,51 40,50.7849426 40,50.5095215 L40,47.4904785 C40,47.2496929 40.1832562,47.049432 40.4122514,47.0079023 L40.5,47 Z" id="Combined-Shape" fill="url(#linearGradient-5)"></path>
                <path d="M6,47.5 C5.58578644,47.5 5.21078644,47.6678932 4.93933983,47.9393398 C4.66789322,48.2107864 4.5,48.5857864 4.5,49 C4.5,49.4142136 4.66789322,49.7892136 4.93933983,50.0606602 C5.21078644,50.3321068 5.58578644,50.5 6,50.5 C6.41421356,50.5 6.78921356,50.3321068 7.06066017,50.0606602 C7.33210678,49.7892136 7.5,49.4142136 7.5,49 C7.5,48.5857864 7.33210678,48.2107864 7.06066017,47.9393398 C6.78921356,47.6678932 6.41421356,47.5 6,47.5 Z" id="Oval" stroke="#54D800" fill="url(#radialGradient-6)"></path>
            </g>
        </g>
        <path d="M32,34.625 C31.3721538,34.625 30.7576346,34.5642885 30.1638462,34.4487885 C32.6604231,33.7498654 35.6264038,32.0232885 37.0360962,29.2512885 C37.0360962,29.2512885 39.9265577,24.5143077 35.0355769,20.2511731 C35.0355769,20.2511731 36.29275,22.2294808 36.33125,24.2196346 C36.33125,24.2196346 36.6303654,26.8361538 34.3159231,28.4709231 C30.90275,30.8801346 25.5853077,29.7947308 23.3226923,29.1698462 C22.7155769,27.9082308 22.375,26.4940962 22.375,25 C22.375,22.7640385 23.1375962,20.70725 24.4169808,19.0724808 C25.0477885,22.1184231 26.3508654,24.6623846 27.2274808,25.6071154 C28.3958077,26.8642885 30.1164615,28.1999423 32.3257692,27.6490962 C34.5335962,27.0967692 34.98375,24.6816346 34.98375,24.6816346 C35.4724038,22.6278077 34.7764423,20.1875 34.7394231,20.1356731 C34.7024038,20.0838462 34.3707115,20.0275769 34.3707115,20.0275769 C34.7172115,23.2630577 33.8657692,24.6949615 33.8657692,24.6949615 C32.6278462,27.2315192 30.8094615,26.4467115 30.8094615,26.4467115 C28.7882115,25.4160962 28.8829808,22.5123077 28.8829808,22.5123077 C28.82375,20.5650962 29.5656154,17.3932885 30.9960385,15.4268269 C31.32625,15.3927692 31.6609038,15.375 32,15.375 C33.2882692,15.375 34.5173077,15.6282115 35.6412115,16.0887308 C34.4477115,17.0912115 32.6085962,18.9673462 32.6085962,18.9673462 C29.6292885,21.7289808 30.2067885,24.0523077 30.2067885,24.0523077 C30.6806346,26.4926154 32.1584423,24.8489615 32.1584423,24.8489615 C33.7117692,23.2438077 33.5962692,20.0468269 33.5962692,20.0468269 C32.9669423,20.149 32.5686154,20.4955 32.5686154,20.4955 C32.4916154,22.6278077 31.2329615,23.9501346 31.2329615,23.9501346 C30.7457885,24.4891346 30.3992885,23.9753077 30.3992885,23.9753077 C30.1431154,23.5903077 30.6554615,23.3208077 30.6554615,23.3208077 C31.3751154,22.6914808 31.5898269,21.6179231 31.5809423,21.2151538 C31.5705769,20.8109038 31.7852885,20.7013269 31.7852885,20.7013269 C32.8010962,19.918 33.8154231,19.456 33.8154231,19.456 C35.17625,18.7615192 37.6032308,18.6460192 37.6032308,18.6460192 C38.1777692,18.6652692 38.7286154,18.6430577 39.1950577,18.6075192 C40.7069231,20.3074423 41.625,22.5463654 41.625,25 C41.625,30.3159615 37.3159615,34.625 32,34.625 M21,25 C21,31.0751429 25.9248571,36 32,36 C38.0751429,36 43,31.0751429 43,25 C43,18.9248571 38.0751429,14 32,14 C25.9248571,14 21,18.9248571 21,25 Z" id="Page-1" fill="#FFFFFF"></path>
    </g>
</svg>