<?xml version="1.0" encoding="UTF-8"?>
<svg width="128px" height="128px" viewBox="0 0 128 128" version="1.1" xmlns="http://www.w3.org/2000/svg" xmlns:xlink="http://www.w3.org/1999/xlink">
    <title>drive-harddisk-deepin-128px</title>
    <defs>
        <filter x="-17.4%" y="-14.8%" width="134.8%" height="129.6%" filterUnits="objectBoundingBox" id="filter-1">
            <feOffset dx="0" dy="2" in="SourceAlpha" result="shadowOffsetOuter1"></feOffset>
            <feGaussianBlur stdDeviation="3" in="shadowOffsetOuter1" result="shadowBlurOuter1"></feGaussianBlur>
            <feColorMatrix values="0 0 0 0 0   0 0 0 0 0   0 0 0 0 0  0 0 0 0.2 0" type="matrix" in="shadowBlurOuter1" result="shadowMatrixOuter1"></feColorMatrix>
            <feMerge>
                <feMergeNode in="shadowMatrixOuter1"></feMergeNode>
                <feMergeNode in="SourceGraphic"></feMergeNode>
            </feMerge>
        </filter>
        <linearGradient x1="102.549264%" y1="57.6822305%" x2="-2.65228894%" y2="57.6822305%" id="linearGradient-2">
            <stop stop-color="#0067BC" offset="0%"></stop>
            <stop stop-color="#30EA7F" offset="4.57146722%"></stop>
            <stop stop-color="#00D887" offset="9.93130604%"></stop>
            <stop stop-color="#00B160" offset="88.9446523%"></stop>
            <stop stop-color="#00C165" offset="93.7925209%"></stop>
            <stop stop-color="#008CBD" offset="100%"></stop>
        </linearGradient>
        <linearGradient x1="100%" y1="56.4295561%" x2="0%" y2="56.4295561%" id="linearGradient-3">
            <stop stop-color="#FFFFFF" stop-opacity="0.5" offset="0%"></stop>
            <stop stop-color="#FFFFFF" offset="8.38902143%"></stop>
            <stop stop-color="#FFFFFF" stop-opacity="0.8" offset="52.3560063%"></stop>
            <stop stop-color="#FFFFFF" offset="88.1683526%"></stop>
            <stop stop-color="#FFFFFF" stop-opacity="0.5" offset="100%"></stop>
        </linearGradient>
        <radialGradient cx="48.2392027%" cy="19.1031265%" fx="48.2392027%" fy="19.1031265%" r="78.6539217%" gradientTransform="translate(0.482392,0.191031),scale(0.217391,1.000000),rotate(90.000000),scale(1.000000,3.580713),translate(-0.482392,-0.191031)" id="radialGradient-4">
            <stop stop-color="#7CFFFE" offset="0%"></stop>
            <stop stop-color="#D6CDE6" offset="100%"></stop>
        </radialGradient>
        <linearGradient x1="50%" y1="0%" x2="50%" y2="100%" id="linearGradient-5">
            <stop stop-color="#0174FF" offset="0%"></stop>
            <stop stop-color="#01C2FF" offset="50.8499801%"></stop>
            <stop stop-color="#0056FF" offset="100%"></stop>
        </linearGradient>
        <path d="M61,94 C61.5522847,94 62,94.4530363 62,94.9970301 L62,101.00297 C62,101.514283 61.6172798,101.935699 61.1173326,101.993292 L61,102 C60.4477153,102 60,101.546964 60,101.00297 L60,94.9970301 C60,94.4857174 60.3827202,94.0643013 60.8826674,94.0067078 L61,94 Z M65,94 C65.5522847,94 66,94.4530363 66,94.9970301 L66,101.00297 C66,101.514283 65.6172798,101.935699 65.1173326,101.993292 L65,102 C64.4477153,102 64,101.546964 64,101.00297 L64,94.9970301 C64,94.4857174 64.3827202,94.0643013 64.8826674,94.0067078 L65,94 Z M69,94 C69.5522847,94 70,94.4530363 70,94.9970301 L70,101.00297 C70,101.514283 69.6172798,101.935699 69.1173326,101.993292 L69,102 C68.4477153,102 68,101.546964 68,101.00297 L68,94.9970301 C68,94.4857174 68.3827202,94.0643013 68.8826674,94.0067078 L69,94 Z M73,94 C73.5522847,94 74,94.4530363 74,94.9970301 L74,101.00297 C74,101.514283 73.6172798,101.935699 73.1173326,101.993292 L73,102 C72.4477153,102 72,101.546964 72,101.00297 L72,94.9970301 C72,94.4857174 72.3827202,94.0643013 72.8826674,94.0067078 L73,94 Z M77,94 C77.5522847,94 78,94.4530363 78,94.9970301 L78,101.00297 C78,101.514283 77.6172798,101.935699 77.1173326,101.993292 L77,102 C76.4477153,102 76,101.546964 76,101.00297 L76,94.9970301 C76,94.4857174 76.3827202,94.0643013 76.8826674,94.0067078 L77,94 Z M81,94 C81.5522847,94 82,94.4530363 82,94.9970301 L82,101.00297 C82,101.514283 81.6172798,101.935699 81.1173326,101.993292 L81,102 C80.4477153,102 80,101.546964 80,101.00297 L80,94.9970301 C80,94.4857174 80.3827202,94.0643013 80.8826674,94.0067078 L81,94 Z" id="path-6"></path>
        <filter x="-2.3%" y="-6.2%" width="104.5%" height="125.0%" filterUnits="objectBoundingBox" id="filter-7">
            <feOffset dx="0" dy="1" in="SourceAlpha" result="shadowOffsetOuter1"></feOffset>
            <feColorMatrix values="0 0 0 0 1   0 0 0 0 1   0 0 0 0 1  0 0 0 0.3 0" type="matrix" in="shadowOffsetOuter1"></feColorMatrix>
        </filter>
        <radialGradient cx="50%" cy="37.643375%" fx="50%" fy="37.643375%" r="62.356625%" id="radialGradient-8">
            <stop stop-color="#B0FF58" offset="0%"></stop>
            <stop stop-color="#37EC00" offset="100%"></stop>
        </radialGradient>
    </defs>
    <g id="drive-harddisk-deepin-128px" stroke="none" stroke-width="1" fill="none" fill-rule="evenodd">
        <g id="drive-harddisk-128px">
            <g id="Group" filter="url(#filter-1)" transform="translate(18.000000, 10.000000)">
                <path d="M-3.48450158e-10,16.0022588 C-3.48450158e-10,7.16445529 7.1616376,4.06657819e-10 15.9988959,4.06657819e-10 L76.0011022,4.06657819e-10 C84.8370484,4.06657819e-10 91.9999982,7.16764125 91.9999984,16.0022588 L92,99.9437452 L-3.48450158e-10,99.9437452 L-3.48450158e-10,16.0022588 Z" id="Rectangle-1" fill="url(#linearGradient-2)"></path>
                <path d="M82.9901138,76.5 L9.00988618,76.5 C6.65747472,76.5 4.53046849,77.4500711 2.99130814,78.9865519 C1.45141169,80.5237675 0.500000003,82.647887 0.500000004,84.9942007 L0.500000005,95.0057996 C0.500000005,97.3513878 1.45240508,99.4747885 2.99212465,101.011828 C4.53219491,102.549217 6.65981932,103.5 9.00988618,103.5 L82.9901138,103.5 C85.3425253,103.5 87.4695315,102.549929 89.0086919,101.013448 C90.5485883,99.4762323 91.5,97.3521129 91.5,95.0057992 L91.5,84.9942005 C91.5,82.6486124 90.5475949,80.5252117 89.0078754,78.9881727 C87.4678051,77.4507836 85.3401807,76.5 82.9901138,76.5 Z" id="Rectangle-3" stroke-opacity="0.5" stroke="#FFFFFF" fill="url(#linearGradient-3)"></path>
                <path d="M82.0012108,88.5 L9.99878601,88.5 C7.37288005,88.5 4.99892429,89.5624194 3.28109357,91.2804587 C1.56195897,92.999802 0.499999998,95.3756582 0.499999998,98 C0.499999998,100.62379 1.56305903,102.99869 3.28185313,104.717693 C5.00081601,106.436864 7.37562951,107.5 9.99878601,107.5 L82.0012108,107.5 C84.6402334,107.5 87.0247808,106.426586 88.743464,104.658892 C90.4477117,102.906045 91.4961815,100.471949 91.496158,97.7274087 C91.4239911,95.1639522 90.3369242,92.8552557 88.622822,91.1882996 C86.911917,89.5244527 84.5762146,88.5 82.0012108,88.5 Z" id="Rectangle-1" stroke-opacity="0.2" stroke="#003D9C" fill="url(#radialGradient-4)"></path>
                <g id="Combined-Shape">
                    <use fill="black" fill-opacity="1" filter="url(#filter-7)" xlink:href="#path-6"></use>
                    <use fill="url(#linearGradient-5)" fill-rule="evenodd" xlink:href="#path-6"></use>
                </g>
                <path d="M12,94.5 C11.0335017,94.5 10.1585017,94.8917508 9.52512627,95.5251263 C8.89175084,96.1585017 8.5,97.0335017 8.5,98 C8.5,98.9664983 8.89175084,99.8414983 9.52512627,100.474874 C10.1585017,101.108249 11.0335017,101.5 12,101.5 C12.9664983,101.5 13.8414983,101.108249 14.4748737,100.474874 C15.1082492,99.8414983 15.5,98.9664983 15.5,98 C15.5,97.0335017 15.1082492,96.1585017 14.4748737,95.5251263 C13.8414983,94.8917508 12.9664983,94.5 12,94.5 Z" id="Oval" stroke="#54D800" fill="url(#radialGradient-8)"></path>
            </g>
        </g>
        <path d="M64,67.375 C62.8013846,67.375 61.6282115,67.2590962 60.4946154,67.0385962 C65.2608077,65.7042885 70.9231346,62.4080962 73.6143654,57.1160962 C73.6143654,57.1160962 79.1325192,48.0727692 69.7951923,39.9340577 C69.7951923,39.9340577 72.19525,43.7108269 72.26875,47.5102115 C72.26875,47.5102115 72.8397885,52.5053846 68.4213077,55.6263077 C61.90525,60.2257115 51.7537692,58.1535769 47.4342308,56.9606154 C46.2751923,54.5520769 45.625,51.8523654 45.625,49 C45.625,44.7313462 47.0808654,40.80475 49.5233269,37.6838269 C50.7275962,43.4988077 53.2152885,48.3554615 54.8888269,50.1590385 C57.1192692,52.5590962 60.4041538,55.1089808 64.6219231,54.0573654 C68.8368654,53.0029231 69.69625,48.3922115 69.69625,48.3922115 C70.6291346,44.4712692 69.3004808,39.8125 69.2298077,39.7135577 C69.1591346,39.6146154 68.5259038,39.5071923 68.5259038,39.5071923 C69.1874038,45.6840192 67.5619231,48.4176538 67.5619231,48.4176538 C65.1986154,53.2601731 61.7271538,51.7619038 61.7271538,51.7619038 C57.8684038,49.7943654 58.0493269,44.2507692 58.0493269,44.2507692 C57.93625,40.5333654 59.3525385,34.4780962 62.0833462,30.7239423 C62.71375,30.6589231 63.3526346,30.625 64,30.625 C66.4594231,30.625 68.8057692,31.1084038 70.9514038,31.9875769 C68.6729038,33.9014038 65.1618654,37.4831154 65.1618654,37.4831154 C59.4740962,42.7553269 60.5765962,47.1907692 60.5765962,47.1907692 C61.4812115,51.8495385 64.3024808,48.7116538 64.3024808,48.7116538 C67.2679231,45.6472692 67.0474231,39.5439423 67.0474231,39.5439423 C65.8459808,39.739 65.0855385,40.4005 65.0855385,40.4005 C64.9385385,44.4712692 62.5356538,46.9957115 62.5356538,46.9957115 C61.6055962,48.0247115 60.9440962,47.0437692 60.9440962,47.0437692 C60.4550385,46.3087692 61.4331538,45.7942692 61.4331538,45.7942692 C62.8070385,44.5928269 63.2169423,42.5433077 63.1999808,41.7743846 C63.1801923,41.0026346 63.5900962,40.7934423 63.5900962,40.7934423 C65.5293654,39.298 67.4658077,38.416 67.4658077,38.416 C70.06375,37.0901731 74.6970769,36.8696731 74.6970769,36.8696731 C75.7939231,36.9064231 76.8455385,36.8640192 77.7360192,36.7961731 C80.6223077,40.0414808 82.375,44.3157885 82.375,49 C82.375,59.1486538 74.1486538,67.375 64,67.375 M43,49 C43,60.598 52.402,70 64,70 C75.598,70 85,60.598 85,49 C85,37.402 75.598,28 64,28 C52.402,28 43,37.402 43,49 Z" id="Page-1" fill="#FFFFFF"></path>
    </g>
</svg>