<?xml version="1.0" encoding="UTF-8"?>
<svg width="32px" height="32px" viewBox="0 0 32 32" version="1.1" xmlns="http://www.w3.org/2000/svg" xmlns:xlink="http://www.w3.org/1999/xlink">
    <title>drive-harddisk-mac-32px</title>
    <defs>
        <filter x="-16.7%" y="-14.8%" width="133.3%" height="129.6%" filterUnits="objectBoundingBox" id="filter-1">
            <feOffset dx="0" dy="1" in="SourceAlpha" result="shadowOffsetOuter1"></feOffset>
            <feGaussianBlur stdDeviation="0.5" in="shadowOffsetOuter1" result="shadowBlurOuter1"></feGaussianBlur>
            <feColorMatrix values="0 0 0 0 0   0 0 0 0 0   0 0 0 0 0  0 0 0 0.15 0" type="matrix" in="shadowBlurOuter1" result="shadowMatrixOuter1"></feColorMatrix>
            <feMerge>
                <feMergeNode in="shadowMatrixOuter1"></feMergeNode>
                <feMergeNode in="SourceGraphic"></feMergeNode>
            </feMerge>
        </filter>
        <linearGradient x1="102.549264%" y1="57.6822305%" x2="-2.65228894%" y2="57.6822305%" id="linearGradient-2">
            <stop stop-color="#0067BC" offset="0%"></stop>
            <stop stop-color="#30EA7F" offset="4.57146722%"></stop>
            <stop stop-color="#00D887" offset="9.93130604%"></stop>
            <stop stop-color="#00B160" offset="88.9446523%"></stop>
            <stop stop-color="#00C165" offset="93.7925209%"></stop>
            <stop stop-color="#008CBD" offset="100%"></stop>
        </linearGradient>
        <linearGradient x1="100%" y1="56.4295561%" x2="0%" y2="56.4295561%" id="linearGradient-3">
            <stop stop-color="#FFFFFF" stop-opacity="0.5" offset="0%"></stop>
            <stop stop-color="#FFFFFF" offset="8.38902143%"></stop>
            <stop stop-color="#FFFFFF" stop-opacity="0.8" offset="52.3560063%"></stop>
            <stop stop-color="#FFFFFF" offset="88.1683526%"></stop>
            <stop stop-color="#FFFFFF" stop-opacity="0.5" offset="100%"></stop>
        </linearGradient>
        <radialGradient cx="48.2392027%" cy="19.1031265%" fx="48.2392027%" fy="19.1031265%" r="78.6539217%" gradientTransform="translate(0.482392,0.191031),scale(0.208333,1.000000),rotate(90.000000),scale(1.000000,3.580713),translate(-0.482392,-0.191031)" id="radialGradient-4">
            <stop stop-color="#7CFFFE" offset="0%"></stop>
            <stop stop-color="#D6CDE6" offset="100%"></stop>
        </radialGradient>
        <linearGradient x1="50%" y1="0%" x2="50%" y2="100%" id="linearGradient-5">
            <stop stop-color="#0174FF" offset="0%"></stop>
            <stop stop-color="#01C2FF" offset="50.8499801%"></stop>
            <stop stop-color="#0056FF" offset="100%"></stop>
        </linearGradient>
        <radialGradient cx="50%" cy="37.643375%" fx="50%" fy="37.643375%" r="62.356625%" id="radialGradient-6">
            <stop stop-color="#B0FF58" offset="0%"></stop>
            <stop stop-color="#37EC00" offset="100%"></stop>
        </radialGradient>
    </defs>
    <g id="drive-harddisk-mac-32px" stroke="none" stroke-width="1" fill="none" fill-rule="evenodd">
        <g id="drive-harddisk-32px">
            <g id="Group" filter="url(#filter-1)" transform="translate(4.000000, 2.000000)">
                <path d="M-3.48450158e-10,3.99976556 C-3.48450158e-10,1.79075604 1.78429324,4.06657819e-10 3.99005293,4.06657819e-10 L20.0099466,4.06657819e-10 C22.213592,4.06657819e-10 23.9999995,1.7856077 23.9999996,3.99976556 L24,23.5 L-3.48450158e-10,23.5 L-3.48450158e-10,3.99976556 Z" id="Rectangle-1" fill="url(#linearGradient-2)"></path>
                <path d="M21.7421383,19.5 L2.25786173,19.5 C1.76942829,19.5 1.33031709,19.6949121 1.0131816,20.0114174 C0.695048167,20.3289187 0.500000002,20.7682526 0.500000002,21.2533752 L0.500000002,23.7466249 C0.500000002,24.232382 0.695838073,24.6702835 1.01305522,24.9868703 C1.33142754,25.30461 1.77170754,25.5000001 2.25786173,25.5000001 L21.7421383,25.5 C22.2305717,25.5 22.6696829,25.3050878 22.9868184,24.9885825 C23.3049518,24.6710813 23.5,24.2317473 23.5,23.7466248 L23.5,21.2533752 C23.5,20.7676181 23.3041619,20.3297166 22.9869448,20.0131298 C22.6685725,19.6953901 22.2282925,19.5 21.7421383,19.5 Z" id="Rectangle-3" stroke-opacity="0.5" stroke="#FFFFFF" fill="url(#linearGradient-3)"></path>
                <path d="M21.4994976,22.5 L2.50050156,22.5 C1.94979018,22.5 1.44932086,22.7246702 1.08665134,23.087267 C0.724824749,23.449021 0.499999999,23.9483527 0.499999999,24.5 C0.499999999,25.0550966 0.722593017,25.554559 1.08354161,25.9154352 C1.44583867,26.2776596 1.94704653,26.5 2.50050156,26.5 L21.4994976,26.5 C22.0537956,26.5 22.5571898,26.2715157 22.9182529,25.8858158 C23.2767825,25.502822 23.4931854,24.967811 23.4946912,24.3518782 C23.4573492,23.8326101 23.2241366,23.3709327 22.8687939,23.0384646 C22.5108204,22.703535 22.0290738,22.5 21.4994976,22.5 Z" id="Rectangle-1" stroke-opacity="0.2" stroke="#003D9C" fill="url(#radialGradient-4)"></path>
                <path d="M15,24 L15,25 L14,25 L14,24 L15,24 Z M17,24 L17,25 L16,25 L16,24 L17,24 Z M19,24 L19,25 L18,25 L18,24 L19,24 Z M21,24 L21,25 L20,25 L20,24 L21,24 Z" id="Combined-Shape" fill="url(#linearGradient-5)"></path>
                <path d="M3,25.5 C3.55228475,25.5 4,25.0522847 4,24.5 C4,23.9477153 3.55228475,23.5 3,23.5 C2.44771525,23.5 2,23.9477153 2,24.5 C2,25.0522847 2.44771525,25.5 3,25.5 Z" id="Oval" fill="url(#radialGradient-6)"></path>
            </g>
        </g>
        <path d="M21.1654826,14.6786946 C20.8873892,15.2944211 20.7545142,15.5696102 20.3972766,16.1134536 C19.8977249,16.8736726 19.1948673,17.8197713 18.32283,17.8277583 C17.5480892,17.8350192 17.3491398,17.32385 16.2984838,17.3296587 C15.2471017,17.3354675 15.0278218,17.8364714 14.2530809,17.8299365 C13.3810437,17.8219495 12.7144907,16.9673385 12.2156651,16.2071196 C10.819389,14.0825726 10.6734443,11.5891705 11.5345902,10.2633254 C12.1466863,9.32158328 13.1109373,8.77047898 14.018553,8.77047898 C14.9428689,8.77047898 15.523743,9.27656554 16.2875924,9.27656554 C17.0282069,9.27656554 17.4798365,8.7690268 18.5479188,8.7690268 C19.3553337,8.7690268 20.2106708,9.20903892 20.8205886,9.96925789 C18.8231079,11.0634795 19.1476713,13.9162974 21.1654826,14.6786946 L21.1654826,14.6786946 Z M17.7375268,7.92051497 C18.1252602,7.42241543 18.4200538,6.71883169 18.3133182,6 C17.6794394,6.04356556 16.9380988,6.44727305 16.5053476,6.9729641 C16.1118054,7.45000695 15.787242,8.15794725 15.9143082,8.84628305 C16.6062745,8.86733974 17.3222018,8.45419304 17.7375268,7.92051497 L17.7375268,7.92051497 Z" id="Combined-Shape" fill="#FFFFFF"></path>
    </g>
</svg>