<?xml version="1.0" encoding="UTF-8"?>
<svg width="14px" height="14px" viewBox="0 0 14 14" version="1.1" xmlns="http://www.w3.org/2000/svg" xmlns:xlink="http://www.w3.org/1999/xlink">
    <!-- Generator: Sketch 62 (91390) - https://sketch.com -->
    <title>qr</title>
    <desc>Created with Sketch.</desc>
    <g id="qr" stroke="none" stroke-width="1" fill="none" fill-rule="evenodd">
        <path d="M13,10 L13,13 L10,13 L10,12 L12,12 L12,10 L13,10 Z M7,8 L7,13 L2,13 L2,8 L7,8 Z M9,12 L9,13 L8,13 L8,12 L9,12 Z M6,9 L3,9 L3,12 L6,12 L6,9 Z M11,8 L11,9 L9,9 L9,11 L8,11 L8,8 L11,8 Z M5,10 L5,11 L4,11 L4,10 L5,10 Z M11,10 L11,11 L10,11 L10,10 L11,10 Z M13,8 L13,9 L12,9 L12,8 L13,8 Z M7,2 L7,7 L2,7 L2,2 L7,2 Z M13,2 L13,7 L8,7 L8,2 L13,2 Z M6,3 L3,3 L3,6 L6,6 L6,3 Z M12,3 L9,3 L9,6 L12,6 L12,3 Z M5,4 L5,5 L4,5 L4,4 L5,4 Z M11,4 L11,5 L10,5 L10,4 L11,4 Z" id="形状结合" fill="#536076"></path>
    </g>
</svg>