<?xml version="1.0" encoding="UTF-8"?>
<svg width="14px" height="14px" viewBox="0 0 14 14" version="1.1" xmlns="http://www.w3.org/2000/svg" xmlns:xlink="http://www.w3.org/1999/xlink">
    <!-- Generator: Sketch 62 (91390) - https://sketch.com -->
    <title>data</title>
    <desc>Created with Sketch.</desc>
    <g id="data" stroke="none" stroke-width="1" fill="none" fill-rule="evenodd">
        <path d="M8.46883796,3.0288245 C8.72372187,3.11371144 8.86153166,3.38915014 8.77664472,3.64403406 C8.7737193,3.65281801 8.77054369,3.66151666 8.76712179,3.67011936 L5.59082496,11.6553556 C5.48398126,11.9239615 5.18609369,12.0625172 4.91182846,11.9711755 C4.65694455,11.8862886 4.51913476,11.6108499 4.6040217,11.3559659 C4.60694712,11.347182 4.61012273,11.3384833 4.61354463,11.3298806 L7.78984146,3.3446444 C7.89668516,3.07603846 8.19457273,2.93748278 8.46883796,3.0288245 Z M3.48769553,5.1840486 C3.66820453,5.3492187 3.68826109,5.60560972 3.54786519,5.79105114 L3.48769553,5.85694917 L1.25528,7.89956167 L3.48769553,9.94217418 C3.66820453,10.1073443 3.68826109,10.3637353 3.54786519,10.5491767 L3.48769553,10.6150748 C3.30718652,10.7802449 3.02698514,10.7985971 2.82432228,10.6701315 L2.75230447,10.6150748 L0.152304474,8.23601196 C-0.0282045322,8.07084186 -0.0482610884,7.81445083 0.0921348051,7.62900942 L0.152304474,7.56311139 L2.75230447,5.1840486 C2.95537711,4.99823223 3.28462289,4.99823223 3.48769553,5.1840486 Z M9.51230447,5.1840486 C9.71537711,4.99823223 10.0446229,4.99823223 10.2476955,5.1840486 L10.2476955,5.1840486 L12.8476955,7.56311139 L12.9078652,7.62900942 C13.0482611,7.81445083 13.0282045,8.07084186 12.8476955,8.23601196 L12.8476955,8.23601196 L10.2476955,10.6150748 L10.1756777,10.6701315 C9.97301486,10.7985971 9.69281348,10.7802449 9.51230447,10.6150748 L9.51230447,10.6150748 L9.45213481,10.5491767 C9.31173891,10.3637353 9.33179547,10.1073443 9.51230447,9.94217418 L9.51230447,9.94217418 L11.74472,7.89956167 L9.51230447,5.85694917 L9.45213481,5.79105114 C9.31173891,5.60560972 9.33179547,5.3492187 9.51230447,5.1840486 Z" id="形状结合" fill="#536076"></path>
    </g>
</svg>