<svg xmlns="http://www.w3.org/2000/svg" width="153" height="32" viewBox="0 0 153 32">
  <defs>
    <linearGradient id="英文75%-a" x1="-29.741%" x2="1782.54%" y1="46.036%" y2="135.867%">
      <stop offset="0%" stop-color="#0071FF"/>
      <stop offset="21%" stop-color="#0DF" stop-opacity=".75"/>
      <stop offset="46%" stop-color="#006CFF" stop-opacity=".92"/>
      <stop offset="72%" stop-color="#00FCA7"/>
      <stop offset="100%" stop-color="#00A2FF"/>
    </linearGradient>
    <linearGradient id="英文75%-b" x1="1.918%" x2="388.267%" y1="42.89%" y2="114.108%">
      <stop offset="0%" stop-color="#0071FF"/>
      <stop offset="21%" stop-color="#0DF" stop-opacity=".75"/>
      <stop offset="46%" stop-color="#006CFF" stop-opacity=".92"/>
      <stop offset="72%" stop-color="#00FCA7"/>
      <stop offset="100%" stop-color="#00A2FF"/>
    </linearGradient>
    <linearGradient id="英文75%-c" x1="-215.807%" x2="600.65%" y1="38.128%" y2="78.293%">
      <stop offset="0%" stop-color="#0071FF"/>
      <stop offset="21%" stop-color="#0DF" stop-opacity=".75"/>
      <stop offset="46%" stop-color="#006CFF" stop-opacity=".92"/>
      <stop offset="72%" stop-color="#00FCA7"/>
      <stop offset="100%" stop-color="#00A2FF"/>
    </linearGradient>
    <linearGradient id="英文75%-d" x1="-218.48%" x2="594.015%" y1="43.508%" y2="63.16%">
      <stop offset="0%" stop-color="#0071FF"/>
      <stop offset="21%" stop-color="#0DF" stop-opacity=".75"/>
      <stop offset="46%" stop-color="#006CFF" stop-opacity=".92"/>
      <stop offset="72%" stop-color="#00FCA7"/>
      <stop offset="100%" stop-color="#00A2FF"/>
    </linearGradient>
    <linearGradient id="英文75%-e" x1="-223.928%" x2="578.859%" y1="29.684%" y2="89.226%">
      <stop offset="0%" stop-color="#0071FF"/>
      <stop offset="21%" stop-color="#0DF" stop-opacity=".75"/>
      <stop offset="46%" stop-color="#006CFF" stop-opacity=".92"/>
      <stop offset="72%" stop-color="#00FCA7"/>
      <stop offset="100%" stop-color="#00A2FF"/>
    </linearGradient>
    <linearGradient id="英文75%-f" x1="-3.691%" x2="223.094%" y1="31.826%" y2="103.322%">
      <stop offset="0%" stop-color="#0071FF"/>
      <stop offset="21%" stop-color="#0DF" stop-opacity=".75"/>
      <stop offset="46%" stop-color="#006CFF" stop-opacity=".92"/>
      <stop offset="72%" stop-color="#00FCA7"/>
      <stop offset="100%" stop-color="#00A2FF"/>
    </linearGradient>
    <linearGradient id="英文75%-g" x1="-11.002%" x2="331.13%" y1="33.332%" y2="104.159%">
      <stop offset="0%" stop-color="#0071FF"/>
      <stop offset="21%" stop-color="#0DF" stop-opacity=".75"/>
      <stop offset="46%" stop-color="#006CFF" stop-opacity=".92"/>
      <stop offset="72%" stop-color="#00EAB9"/>
      <stop offset="100%" stop-color="#00A2FF"/>
    </linearGradient>
    <linearGradient id="英文75%-h" x1="-129.051%" x2="212.965%" y1="12.671%" y2="84.007%">
      <stop offset="0%" stop-color="#0071FF"/>
      <stop offset="21%" stop-color="#0DF" stop-opacity=".75"/>
      <stop offset="46%" stop-color="#006CFF" stop-opacity=".92"/>
      <stop offset="72%" stop-color="#00EAB9"/>
      <stop offset="100%" stop-color="#00A2FF"/>
    </linearGradient>
    <linearGradient id="英文75%-i" x1="34.322%" x2="551.793%" y1="47.019%" y2="145.962%">
      <stop offset="0%" stop-color="#0071FF"/>
      <stop offset="21%" stop-color="#0DF" stop-opacity=".75"/>
      <stop offset="46%" stop-color="#006CFF" stop-opacity=".92"/>
      <stop offset="72%" stop-color="#00FCA7"/>
      <stop offset="100%" stop-color="#00A2FF"/>
    </linearGradient>
    <linearGradient id="英文75%-j" x1="-253.141%" x2="104.509%" y1="-20.916%" y2="62.779%">
      <stop offset="0%" stop-color="#0071FF"/>
      <stop offset="21%" stop-color="#0DF" stop-opacity=".75"/>
      <stop offset="46%" stop-color="#006CFF" stop-opacity=".92"/>
      <stop offset="72%" stop-color="#00EAB9"/>
      <stop offset="100%" stop-color="#00A2FF"/>
    </linearGradient>
  </defs>
  <g fill="none" transform="translate(0 2)">
    <path fill="url(#英文75%-a)" d="M10.625,24 C10.8090949,24 10.9622063,24.1326564 10.9939582,24.3075933 L11,24.375 L11,26.625 C11,26.8090949 10.8673436,26.9622063 10.6924067,26.9939582 L10.625,27 L2.375,27 C2.19090508,27 2.03779372,26.8673436 2.00604175,26.6924067 L2,26.625 L2,24.375 C2,24.1909051 2.13265637,24.0377937 2.30759328,24.0060418 L2.375,24 L10.625,24 Z"/>
    <path fill="url(#英文75%-b)" d="M20.5490661,0.487091156 L21.51275,3.06175 L21.51275,3.06175 L27.6279907,3.06245667 C27.8350806,3.06252393 28.0029474,3.23041014 28.0029907,3.4375 L28.0029907,5.54321289 C28.0029907,5.75031967 27.8350975,5.91821289 27.6279907,5.91821289 L18.827,5.91821289 L18.827,5.91821289 L15.8495,12.00075 L24.12125,12 L22.4997658,8.53390158 C22.4120069,8.34630736 22.4929394,8.12308954 22.6805336,8.03533062 C22.730275,8.012061 22.78452,8 22.8394352,8 L25.1600088,8 C25.4481803,8 25.7108677,8.16510919 25.8358273,8.42477805 L27.9651489,12.8495561 C28.3243791,13.5960446 28.0104443,14.4924068 27.2639557,14.8516371 C27.0610274,14.9492916 26.8387147,15 26.6135118,15 L25.0100161,15 L25.0100161,15 L25.0107661,23.625 C25.0107661,23.8090949 25.1434225,23.9622063 25.3183594,23.9939582 L25.3857661,24 L27.5681152,24 C27.7522102,24 27.9053215,24.1326564 27.9370735,24.3075933 L27.9431152,24.375 L27.9431152,26.625 C27.9431152,26.8090949 27.8104589,26.9622063 27.635522,26.9939582 L27.5681152,27 L24.12125,27 C23.0134345,27 22.082243,26.1495001 22.0147855,25.0455666 L22.0108742,24.9170989 L22.0101242,15 L19.0403877,15 L19.0411377,21.4504485 C19.0411377,24.4630047 16.0621554,26.9026436 13.0355387,26.9971575 L12.85325,27 L12.4560547,27 C12.2719598,27 12.1188484,26.8673436 12.0870964,26.6924067 L12.0810547,26.625 L12.0810547,24.375 C12.0810547,24.1909051 12.2137111,24.0377937 12.388648,24.0060418 L12.4560547,24 L12.85325,24 C14.2735883,24 15.954767,22.9256024 16.0296949,21.5895598 L16.0335869,21.4504485 L16.0328369,15 L13.4087097,15 C12.5802826,15 11.9087097,14.3284271 11.9087097,13.5 C11.9087097,13.2705759 11.9613362,13.044209 12.0625408,12.8383133 L15.464,5.91821289 L15.464,5.91821289 L12.3862915,5.91821289 C12.1791847,5.91821289 12.0112915,5.75031967 12.0112915,5.54321289 L12.0112915,3.4375 C12.0112915,3.23039322 12.1791847,3.0625 12.3862915,3.0625 L18.146,3.0625 L18.146,3.0625 L17.1895067,0.506426184 C17.1169221,0.312455352 17.215325,0.0963694177 17.4092958,0.0237847408 C17.4513284,0.00805599493 17.495843,1.12175339e-16 17.540722,0 L19.8466568,0 C20.1594597,-8.3461708e-16 20.4394146,0.19413689 20.5490661,0.487091156 Z"/>
    <path fill="url(#英文75%-c)" d="M52.5500701,0.484665667 L53.51275,3.02982003 L53.51275,3.02982003 L60.625,3.02982003 C60.8090949,3.02982003 60.9622063,3.15615943 60.9939582,3.32276601 L61,3.38696289 L61,5.52982003 C61,5.70514853 60.8673436,5.85096887 60.6924067,5.88120884 L60.625,5.88696289 L43.375,5.88696289 C43.1909051,5.88696289 43.0377937,5.76062349 43.0060418,5.59401691 L43,5.52982003 L43,3.38696289 C43,3.2116344 43.1326564,3.06581405 43.3075933,3.03557408 L43.375,3.02982003 L50.146,3.02982003 L49.1920202,0.507667166 C49.1187501,0.313954187 49.2163884,0.0975216772 49.4101014,0.0242516244 C49.4524948,0.00821672966 49.497444,-7.13318973e-16 49.5427686,-8.8817842e-16 L51.8485733,-8.8817842e-16 C52.1604281,-1.38955443e-15 52.4397424,0.192978819 52.5500701,0.484665667 Z"/>
    <path fill="url(#英文75%-d)" d="M43.375 11L60.625 11C60.8321068 11 61 10.8321068 61 10.625L61 8.375C61 8.16789322 60.8321068 8 60.625 8L43.375 8C43.1678932 8 43 8.16789322 43 8.375L43 10.625C43 10.8321068 43.1678932 11 43.375 11zM43.375 15L60.7 15C60.8656854 15 61 14.8656854 61 14.7L61 12.3C61 12.1343146 60.8656854 12 60.7 12L43.375 12C43.1678932 12 43 12.1678932 43 12.375L43 14.625C43 14.8321068 43.1678932 15 43.375 15z"/>
    <path fill="url(#英文75%-e)" d="M44.125,27 L58,27 C59.6568542,27 61,25.6568542 61,24 L61,18.125 C61,17.5036797 60.4963203,17 59.875,17 L44.125,17 C43.5036797,17 43,17.5036797 43,18.125 L43,25.875 C43,26.4963203 43.5036797,27 44.125,27 Z M46,24 L46,20 L58,20 L58,22.875 C58,23.4963203 57.4963203,24 56.875,24 L46,24 L46,24 Z"/>
    <path fill="url(#英文75%-f)" d="M42.2635862,0 C42.470693,-1.31480138e-15 42.6385862,0.167893219 42.6385862,0.375 C42.6385862,0.454253439 42.6134769,0.531469271 42.5668623,0.595564387 L38.999,5.5 L39,26.625 C39,26.8062184 38.8714568,26.957414 38.7005756,26.9923813 L38.625,27 L36.375,27 C36.1678932,27 36,26.8321068 36,26.625 L36,26.625 L35.999,9.625 L35.2246336,10.6911288 C35.0835004,10.885187 34.858034,11 34.6180816,11 L31.7364138,11 C31.529307,11 31.3614138,10.8321068 31.3614138,10.625 C31.3614138,10.5457466 31.3865231,10.4685307 31.4331377,10.4044356 L35.999,4.125 L36,4 L36.09,4 L38.7753664,0.308871227 C38.9164996,0.11481303 39.141966,4.40785481e-17 39.3819184,0 L42.2635862,0 Z"/>
    <path fill="url(#英文75%-g)" d="M67,3.52941176 L67,13.25 L67,13.25 C67,20.2914271 72.8205057,26 80,26 C87.1794943,26 93,20.2914271 93,13.25 L93,3.52941176 C93,2.68474097 92.315259,2 91.4705882,2 C90.6259174,2 89.9411765,2.68474097 89.9411765,3.52941176 L89.9411765,13.25 L89.9411765,13.25 C89.9411765,18.6345729 85.4901527,23 80,23 C74.5098473,23 70.0588235,18.6345729 70.0588235,13.25 L70.0588235,3.52941176 C70.0588235,2.68474097 69.3740826,2 68.5294118,2 C67.684741,2 67,2.68474097 67,3.52941176 Z"/>
    <path fill="url(#英文75%-h)" d="M114,26 L108,26 C102.58999,26 98,21.4988248 98,16 L98,12 C98,6.50117523 102.58999,2 108,2 L114,2 C119.410671,2 124,6.50107288 124,12 L124,16 C124,21.4989271 119.410671,26 114,26 Z M114,23 C117.7611,23 121,19.8420729 121,16 L121,12 C121,8.15792712 117.7611,5 114,5 L108,5 C104.23948,5 101,8.15811083 101,12 L101,16 C101,19.8418892 104.23948,23 108,23 L114,23 Z"/>
    <path fill="url(#英文75%-i)" d="M9.8832314,0.564663789 L5.43714286,8.14814815 L5.43714286,8.14814815 L7.1885,8.14814815 L9.61615053,8.14814815 C9.82325731,8.14814815 9.99115053,8.31604137 9.99115053,8.52314815 C9.99115053,8.57973765 9.9783431,8.63559333 9.95368797,8.68652953 L5.91171429,17.037037 L5.91171429,17.037037 L10.625,17.037037 C10.8321068,17.037037 11,17.2049303 11,17.412037 L11,19.625 C11,19.8321068 10.8321068,20 10.625,20 L3.92857143,20 L3.92857143,20 L3.19138483,20 C2.57006448,20 2.06638483,19.4963203 2.06638483,18.875 C2.06638483,18.709973 2.10269149,18.5469669 2.17273042,18.3975398 L5.588,11.1111111 L5.588,11.1111111 L2.35624322,11.1111111 C1.6106588,11.1111111 1.00624322,10.5066955 1.00624322,9.76111111 C1.00624322,9.52110574 1.07022655,9.28543925 1.19160238,9.07838736 L6.29612787,0.370709026 C6.43073895,0.141079467 6.67697416,4.92985021e-16 6.94315056,0 L9.55973079,0 C9.76683757,-1.49067201e-16 9.93473079,0.167893219 9.93473079,0.375 C9.93473079,0.441675356 9.9169538,0.507145072 9.8832314,0.564663789 Z"/>
    <path fill="url(#英文75%-j)" d="M145.25,11.5 C148.977927,11.5 152,14.5220729 152,18.25 C152,21.9779271 148.977927,25 145.25,25 L145.25,25 L131,25 C130.171573,25 129.5,24.3284271 129.5,23.5 C129.5,22.6715729 130.171573,22 131,22 L131,22 L145.25,22 C147.321073,22 149,20.3210729 149,18.25 C149,16.1789271 147.321073,14.5 145.25,14.5 L145.25,14.5 L134.75,14.5 C131.022073,14.5 128,11.4779271 128,7.75 C128,4.02207288 131.022073,1 134.75,1 L134.75,1 L149,1 C149.828427,1 150.5,1.67157288 150.5,2.5 C150.5,3.32842712 149.828427,4 149,4 L149,4 L134.75,4 C132.678927,4 131,5.67892712 131,7.75 C131,9.82107288 132.678927,11.5 134.75,11.5 L134.75,11.5 Z" opacity=".97"/>
  </g>
</svg>
