<svg id="图层_1" data-name="图层 1" xmlns="http://www.w3.org/2000/svg" xmlns:xlink="http://www.w3.org/1999/xlink" width="123.09mm" height="21.75mm" viewBox="0 0 348.92 61.65">
  <defs>
    <style>
      .cls-1 {
        fill: url(#未命名的渐变_110);
      }

      .cls-2 {
        fill: url(#未命名的渐变_110-2);
      }

      .cls-3 {
        fill: url(#未命名的渐变_110-3);
      }

      .cls-4 {
        fill: url(#未命名的渐变_112);
      }

      .cls-5 {
        fill: url(#未命名的渐变_112-2);
      }

      .cls-6 {
        fill: url(#未命名的渐变_112-3);
      }

      .cls-7 {
        fill: url(#未命名的渐变_112-4);
      }

      .cls-8 {
        fill: url(#未命名的渐变_112-5);
      }

      .cls-9 {
        fill: url(#未命名的渐变_112-6);
      }

      .cls-10 {
        fill: url(#未命名的渐变_112-7);
      }

      .cls-11 {
        fill: url(#未命名的渐变_112-8);
      }
    </style>
    <linearGradient id="未命名的渐变_110" data-name="未命名的渐变 110" x1="269.7" y1="410.66" x2="467.58" y2="459.06" gradientUnits="userSpaceOnUse">
      <stop offset="0" stop-color="#0071ff"/>
      <stop offset="0.21" stop-color="#0df" stop-opacity="0.75"/>
      <stop offset="0.46" stop-color="#006cff" stop-opacity="0.92"/>
      <stop offset="0.72" stop-color="#00eab9"/>
      <stop offset="1" stop-color="#00a2ff"/>
    </linearGradient>
    <linearGradient id="未命名的渐变_110-2" x1="276.95" y1="381" x2="474.83" y2="429.4" xlink:href="#未命名的渐变_110"/>
    <linearGradient id="未命名的渐变_110-3" x1="273.12" y1="396.67" x2="471" y2="445.07" xlink:href="#未命名的渐变_110"/>
    <linearGradient id="未命名的渐变_112" data-name="未命名的渐变 112" x1="1.82" y1="5.17" x2="347.49" y2="49.22" gradientUnits="userSpaceOnUse">
      <stop offset="0" stop-color="#0071ff"/>
      <stop offset="0.21" stop-color="#0df" stop-opacity="0.75"/>
      <stop offset="0.46" stop-color="#006cff" stop-opacity="0.92"/>
      <stop offset="0.72" stop-color="#00fca7"/>
      <stop offset="1" stop-color="#00a2ff"/>
    </linearGradient>
    <linearGradient id="未命名的渐变_112-2" x1="126.72" y1="382.94" x2="472.39" y2="426.99" xlink:href="#未命名的渐变_112"/>
    <linearGradient id="未命名的渐变_112-3" x1="123.31" y1="409.7" x2="468.98" y2="453.76" xlink:href="#未命名的渐变_112"/>
    <linearGradient id="未命名的渐变_112-4" x1="0.42" y1="16.1" x2="346.09" y2="60.16" xlink:href="#未命名的渐变_112"/>
    <linearGradient id="未命名的渐变_112-5" x1="121.32" y1="425.3" x2="467" y2="469.35" xlink:href="#未命名的渐变_112"/>
    <linearGradient id="未命名的渐变_112-6" x1="-4.64" y1="55.79" x2="341.04" y2="99.84" xlink:href="#未命名的渐变_112"/>
    <linearGradient id="未命名的渐变_112-7" x1="122.89" y1="412.99" x2="468.56" y2="457.04" xlink:href="#未命名的渐变_112"/>
    <linearGradient id="未命名的渐变_112-8" x1="122.51" y1="415.99" x2="468.18" y2="460.04" xlink:href="#未命名的渐变_112"/>
  </defs>
  <title>未标题-1</title>
  <g>
    <g>
      <path class="cls-1" d="M330.16,393.1a3.77,3.77,0,0,1,3.77,3.55V422a28.92,28.92,0,0,1-57.84.48V396.87a3.77,3.77,0,0,1,7.54-.22V422a21.38,21.38,0,0,0,42.75.41V396.87A3.77,3.77,0,0,1,330.16,393.1Z" transform="translate(-123.34 -390.09)"/>
      <path class="cls-2" d="M466,393.1a3.77,3.77,0,0,1,0,7.54H433.28a8.8,8.8,0,1,0,0,17.59h22.63a16.34,16.34,0,1,1,0,32.67H423.22a3.77,3.77,0,1,1,0-7.54h32.69a8.8,8.8,0,1,0,0-17.59H433.28a16.34,16.34,0,1,1,0-32.67H466Z" transform="translate(-123.34 -390.09)"/>
      <path class="cls-3" d="M381.72,393.1H371.66A23.88,23.88,0,0,0,347.77,417V427a23.88,23.88,0,0,0,23.89,23.87h10.06A23.88,23.88,0,0,0,405.61,427V417A23.88,23.88,0,0,0,381.72,393.1ZM398.07,427a16.34,16.34,0,0,1-16.35,16.33H371.66A16.34,16.34,0,0,1,355.31,427V417a16.34,16.34,0,0,1,16.35-16.33h10.06A16.34,16.34,0,0,1,398.07,417Z" transform="translate(-123.34 -390.09)"/>
    </g>
    <g>
      <rect class="cls-4" x="94.76" y="16.61" width="42.54" height="6.23" rx="0.66"/>
      <path class="cls-5" d="M218.76,401.82h41a.66.66,0,0,0,.66-.66v-4.91a.65.65,0,0,0-.66-.66H243.1L240,390.68a1.28,1.28,0,0,0-1.08-.59h-5.07a.76.76,0,0,0-.65,1.17l2.73,4.33H218.76a.65.65,0,0,0-.66.66v4.91A.66.66,0,0,0,218.76,401.82Z" transform="translate(-123.34 -390.09)"/>
      <path class="cls-6" d="M217.29,390.09h-5.2a2.54,2.54,0,0,0-2.06,1.05l-17.43,24a.5.5,0,0,0,.41.8h5.85a1.27,1.27,0,0,0,1-.52l4.53-6.22v41.9a.66.66,0,0,0,.66.66H210a.66.66,0,0,0,.66-.66V400.59l7-9.69A.51.51,0,0,0,217.29,390.09Z" transform="translate(-123.34 -390.09)"/>
      <rect class="cls-7" x="94.76" y="27.72" width="42.54" height="6.23" rx="0.66"/>
      <path class="cls-8" d="M258.39,428.92H220.16a2.42,2.42,0,0,0-2.42,2.42v18a2.42,2.42,0,0,0,2.42,2.42h34.06a6.59,6.59,0,0,0,6.59-6.59V431.34A2.42,2.42,0,0,0,258.39,428.92Zm-4,13.76a2.64,2.64,0,0,1-2.64,2.64H224.14v-10h30.25Z" transform="translate(-123.34 -390.09)"/>
      <g>
        <rect class="cls-9" x="1.09" y="54.61" width="18.98" height="6.23" rx="0.66"/>
        <path class="cls-10" d="M142.75,431.11H132.11l8.24-16,2.29-4.34a.58.58,0,0,0-.53-.79H131.64l9.24-17.91a.51.51,0,0,0-.45-.75h-5.5a1.28,1.28,0,0,0-1.13.69l-10.07,19.5a.9.9,0,0,0,0,.16,3,3,0,0,0-.36,1.43,3.11,3.11,0,0,0,3.11,3.11h6.22l-8.51,16.48v0a3.09,3.09,0,0,0,2.72,4.59h15.87a.66.66,0,0,0,.66-.66v-4.91A.67.67,0,0,0,142.75,431.11Z" transform="translate(-123.34 -390.09)"/>
        <path class="cls-11" d="M184.12,401.82a.67.67,0,0,0,.66-.66v-4.91a.66.66,0,0,0-.66-.66h-14.6l-3.09-4.91a1.26,1.26,0,0,0-1.07-.59h-5.07a.76.76,0,0,0-.65,1.17l2.72,4.33H147a.66.66,0,0,0-.66.66v4.91a.67.67,0,0,0,.66.66h7.1l-7.29,14.29s0,.07,0,.11a3.1,3.1,0,0,0,2.67,4.71H154v17.66h.07v.34a5.6,5.6,0,0,1-4.27,5.43h-.32a.66.66,0,0,0-.66.66v5.11a.66.66,0,0,0,.66.65h.63l.1,0a10.43,10.43,0,0,0,10-10.42v-1.75h0V420.93h9.61v26.56a3.29,3.29,0,0,0,3.12,3.28h11.15a.66.66,0,0,0,.66-.65v-4.92a.67.67,0,0,0-.66-.66h-7.36a.67.67,0,0,1-.66-.66V437.7h0V421.11c0-.07,0-.12,0-.18h5.31a3.12,3.12,0,0,0,3.12-3.12,3.07,3.07,0,0,0-.24-1.18.31.31,0,0,0,0-.19l-4.44-8.72a1,1,0,0,0-.91-.51H173a.61.61,0,0,0-.59.8l3.41,6.68H154.65l6.56-12.87Z" transform="translate(-123.34 -390.09)"/>
      </g>
    </g>
  </g>
</svg>
