<svg xmlns="http://www.w3.org/2000/svg" width="22" height="22" viewBox="0 0 22 22">
  <g fill="none" fill-rule="evenodd" transform="translate(-.5 -.5)">
    <rect width="22" height="22" x=".5" y=".5" fill="#FFF" fill-opacity=".2" rx="2"/>
    <path stroke="#FFF" stroke-linecap="round" d="M16.7362012,6.68267513 C15.3135533,4.46755206 12.8281592,3 10,3 C5.581722,3 2,6.581722 2,11 C2,15.418278 5.581722,19 10,19"/>
    <polyline stroke="#FFF" stroke-linecap="round" stroke-linejoin="round" points="9 8 9 12 12 12"/>
    <path stroke="#FFF" d="M14.3732946,15.0882212 L14.3732946,10.3113126 C14.3732946,9.58709463 14.9603893,9 15.6846072,9 C16.4088251,9 16.9959197,9.58709463 16.9959197,10.3113126 L16.9959197,12.7676316 C16.9959197,12.9250327 17.1235186,13.0526316 17.2809197,13.0526316 L20,13.0526316 C20.5522847,13.0526316 21,13.5003468 21,14.0526316 L21,19 C21,19.5522847 20.5522847,20 20,20 L15.1558339,20 C14.8396836,20 14.5421535,19.8504983 14.3534657,19.5968294 L11.6615279,15.9778304 C11.2857741,15.472673 11.3531466,14.7651308 11.817486,14.3399674 C12.2746807,13.9213458 12.9804135,13.9368645 13.4187646,14.3751786 L14.2025869,15.1589348 C14.241641,15.1979856 14.3049575,15.1979829 14.3440083,15.1589289 C14.3627601,15.1401755 14.3732946,15.1147414 14.3732946,15.0882212 Z"/>
  </g>
</svg>
