<svg xmlns="http://www.w3.org/2000/svg" width="22" height="22" viewBox="0 0 22 22">
  <g fill="none" fill-rule="evenodd" stroke="#FFF" transform="translate(1.5 2.5)">
    <path stroke-linecap="round" d="M14.7362012,3.68267513 C13.3135533,1.46755206 10.8281592,0 8,0 C3.581722,0 0,3.581722 0,8 C0,12.418278 3.581722,16 8,16"/>
    <polyline stroke-linecap="round" stroke-linejoin="round" points="7 5 7 9 10 9"/>
    <path d="M12.3732946,12.0882212 L12.3732946,7.31131256 C12.3732946,6.58709463 12.9603893,6 13.6846072,6 C14.4088251,6 14.9959197,6.58709463 14.9959197,7.31131256 L14.9959197,9.76763158 C14.9959197,9.92503273 15.1235186,10.0526316 15.2809197,10.0526316 L18,10.0526316 C18.5522847,10.0526316 19,10.5003468 19,11.0526316 L19,16 C19,16.5522847 18.5522847,17 18,17 L13.1558339,17 C12.8396836,17 12.5421535,16.8504983 12.3534657,16.5968294 L9.6615279,12.9778304 C9.28577411,12.472673 9.35314659,11.7651308 9.81748595,11.3399674 C10.2746807,10.9213458 10.9804135,10.9368645 11.4187646,11.3751786 L12.2025869,12.1589348 C12.241641,12.1979856 12.3049575,12.1979829 12.3440083,12.1589289 C12.3627601,12.1401755 12.3732946,12.1147414 12.3732946,12.0882212 Z"/>
  </g>
</svg>
