<svg xmlns="http://www.w3.org/2000/svg" width="14" height="14" viewBox="0 0 14 14">
  <path fill="#1289FF" d="M7.5,3.83333333 C7.5,4.62238095 6.8285,5.26190476 6,5.26190476 C5.1715,5.26190476 4.5,4.62238095 4.5,3.83333333 C4.5,3.73857143 4.51,3.64619048 4.5285,3.55666667 C5.2655,3.81428571 5.992,3.13666667 5.731,2.42761905 C5.818,2.41333333 5.908,2.4047619 6,2.4047619 C6.8285,2.4047619 7.5,3.0447619 7.5,3.83333333 Z M6.0075,0.5 C2.223,0.5 -8.8817842e-16,3.7755 -8.8817842e-16,3.7755 C-8.8817842e-16,3.7755 2.4175,7.5 6.0075,7.5 C9.874,7.5 12,3.7755 12,3.7755 C12,3.7755 9.8545,0.5 6.0075,0.5 Z M6,6.21428571 C4.6195,6.21428571 3.5,5.14857143 3.5,3.83333333 C3.5,2.51857143 4.6195,1.45238095 6,1.45238095 C7.381,1.45238095 8.5,2.51857143 8.5,3.83333333 C8.5,5.14857143 7.381,6.21428571 6,6.21428571 Z" transform="translate(1 3)"/>
</svg>
