<svg xmlns="http://www.w3.org/2000/svg" width="14" height="14" viewBox="0 0 14 14">
  <g fill="#FFF">
    <rect width="14" height="14" fill-opacity=".2" rx="1.273"/>
    <path d="M8.5,6.83333333 C8.5,7.62238095 7.8285,8.26190476 7,8.26190476 C6.1715,8.26190476 5.5,7.62238095 5.5,6.83333333 C5.5,6.73857143 5.51,6.64619048 5.5285,6.55666667 C6.2655,6.81428571 6.992,6.13666667 6.731,5.42761905 C6.818,5.41333333 6.908,5.4047619 7,5.4047619 C7.8285,5.4047619 8.5,6.0447619 8.5,6.83333333 Z M7.0075,3.5 C3.223,3.5 1,6.7755 1,6.7755 C1,6.7755 3.4175,10.5 7.0075,10.5 C10.874,10.5 13,6.7755 13,6.7755 C13,6.7755 10.8545,3.5 7.0075,3.5 Z M7,9.21428571 C5.6195,9.21428571 4.5,8.14857143 4.5,6.83333333 C4.5,5.51857143 5.6195,4.45238095 7,4.45238095 C8.381,4.45238095 9.5,5.51857143 9.5,6.83333333 C9.5,8.14857143 8.381,9.21428571 7,9.21428571 Z"/>
  </g>
</svg>
