<svg xmlns="http://www.w3.org/2000/svg" width="14" height="14" viewBox="0 0 14 14">
  <g fill="#FFF">
    <rect width="14" height="14" fill-opacity=".2" rx="1.273"/>
    <path d="M11.5196248,3 L11.9709959,3.49062067 L3.14704184,11.6086584 L2.69567082,11.1180377 L11.5196248,3 Z M9.48239313,6.68694758 L11.2554963,5.05534079 C12.3964148,5.87958278 13,6.75718631 13,6.75718631 C13,6.75718631 10.874,10.3043292 7.0075,10.3043292 C6.55783107,10.3043292 6.12655753,10.2486778 5.71612607,10.1513165 L6.6158982,9.32402011 C6.74111107,9.34240845 6.86938733,9.35194825 7,9.35194825 C8.381,9.35194825 9.5,8.28623391 9.5,6.97099585 C9.5,6.87487811 9.4940194,6.78008885 9.48239313,6.68694758 L11.2554963,5.05534079 L9.48239313,6.68694758 Z M7.0075,3.63766251 C7.89236953,3.63766251 8.6872176,3.80270753 9.38664093,4.05687174 L8.37865573,4.9844652 C7.98347973,4.73520966 7.50957607,4.59004347 7,4.59004347 C5.6195,4.59004347 4.5,5.65623391 4.5,6.97099585 C4.5,7.42660118 4.63433617,7.85226458 4.86732287,8.21405891 L3.69793395,9.28985045 C2.01165449,8.24156398 1,6.75718631 1,6.75718631 C1,6.75718631 3.223,3.63766251 7.0075,3.63766251 Z M7,5.54242442 C7.22454427,5.54242442 7.4375562,5.58943535 7.628793,5.67367385 L5.61691566,7.52494191 C5.54161805,7.35460071 5.5,7.16743185 5.5,6.97099585 C5.5,6.87623391 5.51,6.78385298 5.5285,6.69432918 C6.2655,6.95194825 6.992,6.27432918 6.731,5.56528156 C6.818,5.55099585 6.908,5.54242442 7,5.54242442 Z"/>
  </g>
</svg>
