<svg xmlns="http://www.w3.org/2000/svg" width="14" height="14" viewBox="0 0 14 14">
  <path fill="#FFF" d="M10.5196248,0 L10.9709959,0.490620673 L2.14704184,8.60865838 L1.69567082,8.11803771 L10.5196248,0 Z M8.48239313,3.68694758 L10.2554963,2.05534079 C11.3964148,2.87958278 12,3.75718631 12,3.75718631 C12,3.75718631 9.874,7.30432918 6.0075,7.30432918 C5.55783107,7.30432918 5.12655753,7.24867785 4.71612607,7.15131651 L5.6158982,6.32402011 C5.74111107,6.34240845 5.86938733,6.35194825 6,6.35194825 C7.381,6.35194825 8.5,5.28623391 8.5,3.97099585 C8.5,3.87487811 8.4940194,3.78008885 8.48239313,3.68694758 L10.2554963,2.05534079 L8.48239313,3.68694758 Z M6.0075,0.637662513 C6.89236953,0.637662513 7.6872176,0.802707527 8.38664093,1.05687174 L7.37865573,1.9844652 C6.98347973,1.73520966 6.50957607,1.59004347 6,1.59004347 C4.6195,1.59004347 3.5,2.65623391 3.5,3.97099585 C3.5,4.42660118 3.63433617,4.85226458 3.86732287,5.21405891 L2.69793395,6.28985045 C1.01165449,5.24156398 0,3.75718631 0,3.75718631 C0,3.75718631 2.223,0.637662513 6.0075,0.637662513 Z M6,2.54242442 C6.22454427,2.54242442 6.4375562,2.58943535 6.628793,2.67367385 L4.61691566,4.52494191 C4.54161805,4.35460071 4.5,4.16743185 4.5,3.97099585 C4.5,3.87623391 4.51,3.78385298 4.5285,3.69432918 C5.2655,3.95194825 5.992,3.27432918 5.731,2.56528156 C5.818,2.55099585 5.908,2.54242442 6,2.54242442 Z" transform="translate(1 3)"/>
</svg>
