<svg xmlns="http://www.w3.org/2000/svg" width="140" height="41" viewBox="0 0 140 41">
  <defs>
    <linearGradient id="uos-a" x1="0%" x2="100%" y1="45.712%" y2="54.288%">
      <stop offset="0%" stop-color="#0071FF"/>
      <stop offset="21.078%" stop-color="#00FBFF" stop-opacity=".755"/>
      <stop offset="45.882%" stop-color="#006CFF" stop-opacity=".918"/>
      <stop offset="71.851%" stop-color="#00FCA7"/>
      <stop offset="100%" stop-color="#00A2FF"/>
    </linearGradient>
  </defs>
  <path fill="url(#uos-a)" d="M469.530226,76 C471.021395,76 472.019169,77.2088312 472.019169,78.7 L472.019169,78.7 L472.019169,96.7 C472.019169,108.132294 463.132294,117 451.7,117 C440.267706,117 431,108.132294 431,96.7 L431,96.7 L431,78.7 C431,77.2088312 432.038442,76 433.529611,76 C435.02078,76 436.004613,77.0459805 436.004613,78.5371493 L436.004613,78.5371493 L436.004613,96.7 C436.004613,105.149957 443.250043,112 451.7,112 C460.149957,112 467,105.149957 467,96.7 L467,96.7 L467,78.7 C467,77.2088312 468.039058,76 469.530226,76 Z M506.065217,76 C515.41804,76 523,83.5819604 523,92.9347826 L523,100.065217 C523,109.41804 515.41804,117 506.065217,117 L498.934783,117 C489.58196,117 482,109.41804 482,100.065217 L482,92.9347826 C482,83.5819604 489.58196,76 498.934783,76 L506.065217,76 Z M566.9,76 C568.391169,76 569.553724,77.078319 569.553724,78.5694878 C569.553724,80.0606567 568.391169,81.0039416 566.9,81.0039416 L566.9,81.0039416 L543.5,81.0039416 C540.020606,81.0039416 537.172441,84.2206061 537.172441,87.7 C537.172441,91.1793939 540.020606,94 543.5,94 L543.5,94 L559.7,94 C566.161732,94 571,99.2382684 571,105.7 C571,112.161732 566.161732,117 559.7,117 L559.7,117 L536.3,117 C534.808831,117 533.608696,115.993653 533.608696,114.502484 C533.608696,113.011315 534.808831,112 536.3,112 L536.3,112 L559.7,112 C563.179394,112 566,109.179394 566,105.7 C566,102.220606 563.179394,99.018503 559.7,99.018503 L559.7,99.018503 L543.5,99.018503 C537.038268,99.018503 531.9354,94.1617316 531.9354,87.7 C531.9354,81.2382684 537.038268,76 543.5,76 L543.5,76 Z M506.147059,81 L498.852941,81 C492.306743,81 487,86.3067425 487,92.8529412 L487,100.147059 C487,106.693257 492.306743,112 498.852941,112 L506.147059,112 C512.693257,112 518,106.693257 518,100.147059 L518,92.8529412 C518,86.3067425 512.693257,81 506.147059,81 Z" transform="translate(-431 -76)"/>
</svg>
